<?xml version="1.0" encoding="UTF-8"?>
<svg id="Layer_1" data-name="Layer 1" xmlns="http://www.w3.org/2000/svg" viewBox="0 0 105 29">
  <defs>
    <style>
      .cls-1 {
        fill: #f2f2f2;
        stroke-width: 0px;
      }
    </style>
  </defs>
  <path class="cls-1" d="M20.69,7.5c0,.73-.1,1.4-.29,2.02s-.44,1.2-.74,1.77-.62,1.12-.97,1.67c-.35.55-.67,1.13-.98,1.75-.08,0-.13.02-.16.06-.03.04-.06.09-.08.14s-.04.11-.08.15c-.03.04-.09.07-.16.07-.11.28-.26.55-.44.8s-.37.49-.57.73c-.2.24-.39.48-.58.72s-.35.51-.49.79h-.19c-.69,1-1.47,1.89-2.33,2.69s-1.81,1.5-2.83,2.13c-.03.08-.06.14-.12.19-.05.05-.06.12-.04.21-.14.08-.26.18-.35.3-.1.12-.19.25-.28.37-.09.13-.18.25-.28.37-.1.12-.22.21-.37.28-.19-.04-.37-.07-.55-.1-.17-.03-.35-.04-.53-.06-.08,0-.15,0-.23,0-.08,0-.15,0-.21,0-.14-.03-.26-.08-.36-.16-.1-.08-.23-.12-.41-.12-.09,0-.16,0-.21.02-.1-.18-.22-.36-.35-.55-.13-.19-.2-.39-.2-.6,0-.17.02-.32.07-.46.04-.14.07-.29.07-.44,0-.31-.05-.61-.16-.9-.11-.29-.16-.6-.16-.9,0-.1.01-.2.04-.3.03-.1.04-.19.04-.3,0-.12-.05-.22-.15-.31.01-.06.04-.13.08-.19.04-.06.06-.13.06-.21.03-.1.03-.21.02-.34s-.02-.23-.02-.34c0-.27.01-.54.04-.81.03-.27.08-.53.17-.79-.01-.08-.03-.15-.06-.21l-.08-.19c.09-.27.15-.57.17-.9.03-.33.04-.67.04-1v-1.02c0-.33.02-.65.06-.94.03-.13.05-.25.09-.37.03-.12.05-.24.05-.35,0-.1-.02-.19-.06-.28-.04-.08-.09-.16-.15-.24.09-.03.14-.08.15-.16.01-.08.02-.16.02-.22,0-.18-.03-.38-.1-.59.05-.22.08-.44.1-.66.01-.22.02-.44.02-.66,0-.77-.05-1.52-.14-2.27-.1-.74-.16-1.49-.18-2.25h-.06c-.09,0-.16.02-.21.06s-.1.08-.15.12c-.05.05-.11.08-.17.12-.06.03-.14.04-.23.03-.15.18-.33.33-.53.46s-.41.24-.62.35c-.22.1-.44.2-.67.28-.23.08-.45.16-.65.24-.18-.06-.33-.17-.46-.32-.13-.15-.25-.3-.36-.45-.01-.05-.02-.1-.02-.15v-.15c0-.36.08-.63.25-.82.17-.19.35-.41.54-.66h.1c.06,0,.12.01.16.04.04.03.1.04.16.04h.06c.37-.31.76-.55,1.18-.74.42-.19.85-.33,1.3-.43.19-.19.39-.34.59-.44.2-.1.43-.15.7-.15.06,0,.14,0,.22,0,.08,0,.16.02.22.03.52-.24,1.02-.45,1.49-.62.47-.17,1.01-.26,1.62-.26.08,0,.13-.02.16-.06.03-.04.06-.08.09-.12.03-.04.05-.09.08-.12.03-.04.07-.06.13-.06,0,.03,0,.06.02.12.01.05.04.08.1.08s.1-.02.14-.05c.04-.03.1-.05.16-.05s.11.04.13.13c.14-.09.28-.17.4-.25s.27-.13.42-.17c.19.04.39.07.59.1.2.03.4.04.6.04.15,0,.31,0,.46-.03.15-.02.29-.08.4-.18.05-.01.08.01.08.08.12.1.24.17.36.2.13.03.26.05.4.06.14,0,.28.02.42.03.14.01.27.06.38.13.1.03.19.07.25.12.06.06.15.11.25.14.08.03.18.04.32.06.13.01.23.04.3.08.06.03.1.07.11.12s.04.11.11.14c.12.09.27.14.46.16s.36.08.5.18c.05.28.19.47.42.56.23.09.45.18.67.27.08.08.1.17.08.27.15.12.29.24.41.38.12.14.24.29.35.45.11.16.21.32.32.47.1.15.22.29.36.42-.01.12,0,.21.05.27.04.06.05.16.03.29.15.14.29.33.42.56-.08.12-.12.24-.12.38,0,.13.02.26.06.38.04.13.06.26.06.38v.44ZM18.9,7.07c0-.37-.07-.73-.21-1.08-.14-.35-.26-.7-.36-1.05-.17,0-.27-.06-.32-.18-.05-.12-.12-.23-.24-.32-.24-.05-.4-.24-.46-.56-.26-.1-.52-.22-.79-.35s-.49-.31-.67-.54c-.46-.14-.92-.28-1.39-.43-.47-.15-.94-.22-1.43-.22-.09,0-.17,0-.24,0-.07,0-.14,0-.2,0-.1,0-.21.02-.33.06s-.22.06-.33.06c-.11,0-.23-.04-.35-.12-.26.14-.53.25-.83.33-.3.08-.6.14-.91.2s-.61.13-.9.21c-.29.08-.56.21-.79.37-.08-.03-.15-.04-.22-.06-.07-.01-.14-.02-.2-.02-.12,0-.2.03-.27.08-.04.03-.06.06-.07.1,0,.04-.01.08-.02.12,0,.04-.02.08-.05.11s-.08.03-.15.02c0,.06,0,.12,0,.17s0,.11,0,.17c0,.33.04.66.11.99s.11.66.11.99c0,.12,0,.23-.02.36-.01.12-.04.24-.08.35.06.15.1.32.11.5,0,.18,0,.36,0,.54s0,.35.02.53c.01.17.06.34.13.49-.04.19-.06.38-.08.58-.01.19-.02.38-.02.58,0,.45.02.89.07,1.32s.07.88.07,1.32c0,.12,0,.24,0,.36,0,.13-.02.26-.03.38-.03.17-.07.33-.13.48-.06.15-.1.32-.1.5,0,.12,0,.23.02.35.01.12.02.25.02.37,0,.05,0,.1,0,.14s0,.09,0,.14c-.06.45-.12.9-.15,1.36-.04.46-.06.92-.06,1.36,0,.42.01.84.04,1.26.03.42.06.83.12,1.26-.05.09-.08.19-.08.31,0,.18.04.36.13.55.09.19.22.31.4.37.41-.15.79-.35,1.14-.6.35-.25.71-.5,1.07-.76.09-.06.22-.15.4-.26.18-.11.3-.19.36-.24s.12-.11.16-.16c.04-.06.1-.12.16-.18l.84-.9c.49-.5.97-1,1.45-1.52.48-.51.92-1.06,1.33-1.63.12-.18.23-.35.35-.53s.22-.35.33-.55c.05-.06.09-.14.11-.22.03-.08.07-.16.13-.22.04-.05.09-.1.14-.15.06-.05.11-.1.14-.15.1-.12.2-.23.3-.36.1-.12.19-.25.3-.39.28-.41.54-.82.79-1.24.24-.42.51-.83.81-1.24.03-.26.08-.5.15-.72.08-.22.15-.44.23-.65.08-.21.14-.43.19-.66s.06-.49.04-.77c.06-.09.12-.15.16-.19.04-.04.07-.11.07-.23v-.33Z"/>
  <path class="cls-1" d="M40.98,7.5c0,.73-.1,1.4-.29,2.02s-.44,1.2-.74,1.77-.62,1.12-.97,1.67c-.35.55-.67,1.13-.98,1.75-.08,0-.13.02-.16.06-.03.04-.06.09-.08.14s-.04.11-.08.15c-.03.04-.09.07-.16.07-.11.28-.26.55-.44.8s-.37.49-.57.73c-.2.24-.39.48-.58.72s-.35.51-.49.79h-.19c-.69,1-1.47,1.89-2.33,2.69s-1.81,1.5-2.83,2.13c-.03.08-.06.14-.12.19-.05.05-.06.12-.04.21-.14.08-.26.18-.35.3-.1.12-.19.25-.28.37-.09.13-.18.25-.28.37-.1.12-.22.21-.37.28-.19-.04-.37-.07-.55-.1-.17-.03-.35-.04-.53-.06-.08,0-.15,0-.23,0-.08,0-.15,0-.21,0-.14-.03-.26-.08-.36-.16-.1-.08-.23-.12-.41-.12-.09,0-.16,0-.21.02-.1-.18-.22-.36-.35-.55-.13-.19-.2-.39-.2-.6,0-.17.02-.32.07-.46.04-.14.07-.29.07-.44,0-.31-.05-.61-.16-.9-.11-.29-.16-.6-.16-.9,0-.1.01-.2.04-.3.03-.1.04-.19.04-.3,0-.12-.05-.22-.15-.31.01-.06.04-.13.08-.19.04-.06.06-.13.06-.21.03-.1.03-.21.02-.34s-.02-.23-.02-.34c0-.27.01-.54.04-.81.03-.27.08-.53.17-.79-.01-.08-.03-.15-.06-.21l-.08-.19c.09-.27.15-.57.17-.9.03-.33.04-.67.04-1v-1.02c0-.33.02-.65.06-.94.03-.13.05-.25.09-.37.03-.12.05-.24.05-.35,0-.1-.02-.19-.06-.28-.04-.08-.09-.16-.15-.24.09-.03.14-.08.15-.16.01-.08.02-.16.02-.22,0-.18-.03-.38-.1-.59.05-.22.08-.44.1-.66.01-.22.02-.44.02-.66,0-.77-.05-1.52-.14-2.27-.1-.74-.16-1.49-.18-2.25h-.06c-.09,0-.16.02-.21.06s-.1.08-.15.12c-.05.05-.11.08-.17.12-.06.03-.14.04-.23.03-.15.18-.33.33-.53.46s-.41.24-.62.35c-.22.1-.44.2-.67.28-.23.08-.45.16-.65.24-.18-.06-.33-.17-.46-.32-.13-.15-.25-.3-.36-.45-.01-.05-.02-.1-.02-.15v-.15c0-.36.08-.63.25-.82.17-.19.35-.41.54-.66h.1c.06,0,.12.01.16.04.04.03.1.04.16.04h.06c.37-.31.76-.55,1.18-.74.42-.19.85-.33,1.3-.43.19-.19.39-.34.59-.44.2-.1.43-.15.7-.15.06,0,.14,0,.22,0,.08,0,.16.02.22.03.52-.24,1.02-.45,1.49-.62.47-.17,1.01-.26,1.62-.26.08,0,.13-.02.16-.06.03-.04.06-.08.09-.12.03-.04.05-.09.08-.12.03-.04.07-.06.13-.06,0,.03,0,.06.02.12.01.05.04.08.1.08s.1-.02.14-.05c.04-.03.1-.05.16-.05s.11.04.13.13c.14-.09.28-.17.4-.25s.27-.13.42-.17c.19.04.39.07.59.1.2.03.4.04.6.04.15,0,.31,0,.46-.03.15-.02.29-.08.4-.18.05-.01.08.01.08.08.12.1.24.17.36.2.13.03.26.05.4.06.14,0,.28.02.42.03.14.01.27.06.38.13.1.03.19.07.25.12.06.06.15.11.25.14.08.03.18.04.32.06.13.01.23.04.3.08.06.03.1.07.11.12s.04.11.11.14c.12.09.27.14.46.16s.36.08.5.18c.05.28.19.47.42.56.23.09.45.18.67.27.08.08.1.17.08.27.15.12.29.24.41.38.12.14.24.29.35.45.11.16.21.32.32.47.1.15.22.29.36.42-.01.12,0,.21.05.27.04.06.05.16.03.29.15.14.29.33.42.56-.08.12-.12.24-.12.38,0,.13.02.26.06.38.04.13.06.26.06.38v.44ZM39.19,7.07c0-.37-.07-.73-.21-1.08-.14-.35-.26-.7-.36-1.05-.17,0-.27-.06-.32-.18-.05-.12-.12-.23-.24-.32-.24-.05-.4-.24-.46-.56-.26-.1-.52-.22-.79-.35s-.49-.31-.67-.54c-.46-.14-.92-.28-1.39-.43-.47-.15-.94-.22-1.43-.22-.09,0-.17,0-.24,0-.07,0-.14,0-.2,0-.1,0-.21.02-.33.06s-.22.06-.33.06c-.11,0-.23-.04-.35-.12-.26.14-.53.25-.83.33-.3.08-.6.14-.91.2s-.61.13-.9.21c-.29.08-.56.21-.79.37-.08-.03-.15-.04-.22-.06-.07-.01-.14-.02-.2-.02-.12,0-.2.03-.27.08-.04.03-.06.06-.07.1,0,.04-.01.08-.02.12,0,.04-.02.08-.05.11s-.08.03-.15.02c0,.06,0,.12,0,.17s0,.11,0,.17c0,.33.04.66.11.99s.11.66.11.99c0,.12,0,.23-.02.36-.01.12-.04.24-.08.35.06.15.1.32.11.5,0,.18,0,.36,0,.54s0,.35.02.53c.01.17.06.34.13.49-.04.19-.06.38-.08.58-.01.19-.02.38-.02.58,0,.45.02.89.07,1.32s.07.88.07,1.32c0,.12,0,.24,0,.36,0,.13-.02.26-.03.38-.03.17-.07.33-.13.48-.06.15-.1.32-.1.5,0,.12,0,.23.02.35.01.12.02.25.02.37,0,.05,0,.1,0,.14s0,.09,0,.14c-.06.45-.12.9-.15,1.36-.04.46-.06.92-.06,1.36,0,.42.01.84.04,1.26.03.42.06.83.12,1.26-.05.09-.08.19-.08.31,0,.18.04.36.13.55.09.19.22.31.4.37.41-.15.79-.35,1.14-.6.35-.25.71-.5,1.07-.76.09-.06.22-.15.4-.26.18-.11.3-.19.36-.24s.12-.11.16-.16c.04-.06.1-.12.16-.18l.84-.9c.49-.5.97-1,1.45-1.52.48-.51.92-1.06,1.33-1.63.12-.18.23-.35.35-.53s.22-.35.33-.55c.05-.06.09-.14.11-.22.03-.08.07-.16.13-.22.04-.05.09-.1.14-.15.06-.05.11-.1.14-.15.1-.12.2-.23.3-.36.1-.12.19-.25.3-.39.28-.41.54-.82.79-1.24.24-.42.51-.83.81-1.24.03-.26.08-.5.15-.72.08-.22.15-.44.23-.65.08-.21.14-.43.19-.66s.06-.49.04-.77c.06-.09.12-.15.16-.19.04-.04.07-.11.07-.23v-.33Z"/>
  <path class="cls-1" d="M56.56,25.46c-.04.22-.12.37-.26.47-.13.1-.26.23-.37.41h-.08c-.13,0-.25.01-.37.04-.12.03-.25.06-.37.1-.06-.03-.14-.04-.23-.06-.09-.01-.15-.06-.17-.13-.1.05-.24.08-.42.08-.29,0-.57-.08-.83-.25-.26-.17-.53-.29-.82-.38-.08-.15-.17-.29-.28-.41-.11-.12-.22-.24-.33-.35-.11-.12-.21-.24-.32-.36-.1-.13-.19-.28-.25-.46-.03-.08-.06-.12-.1-.13-.04-.01-.1-.01-.17,0,.01-.14,0-.26-.05-.36-.04-.1-.14-.17-.3-.19,0-.17-.03-.31-.08-.42-.05-.12-.11-.21-.18-.3s-.15-.17-.23-.26c-.08-.09-.15-.2-.2-.33-.12-.03-.23-.04-.34-.05-.11,0-.23,0-.36,0-.61,0-1.21.12-1.79.35-.06.03-.13.06-.2.1-.07.04-.14.07-.2.1-.03,0-.05,0-.07,0-.02,0-.04,0-.07,0-.09,0-.17-.02-.25-.05-.08-.03-.16-.05-.25-.05-.04,0-.08,0-.12.03-.04.02-.09.04-.12.05-.19.06-.37.1-.54.12-.52.1-1.08.18-1.66.23-.58.05-1.12.19-1.6.4-.1.05-.17.13-.19.24-.03.11-.03.21-.02.32-.14.1-.25.24-.32.4-.07.17-.13.34-.19.53-.06.19-.12.37-.18.55s-.15.33-.27.46c.04.08.06.16.06.25,0,.19-.06.38-.19.58-.13.19-.22.38-.29.56-.06.18-.12.36-.15.53-.04.17-.1.33-.17.47-.08.14-.18.26-.32.35-.13.09-.32.13-.57.13-.23,0-.43-.04-.59-.13-.17-.09-.3-.2-.4-.35-.1-.14-.19-.31-.25-.5s-.12-.38-.15-.58c.14-.28.28-.52.4-.73s.22-.47.29-.79c.23-.17.4-.37.51-.6.11-.24.17-.5.18-.78.14-.09.24-.21.3-.35.06-.15.09-.3.11-.47-.31-.03-.63-.05-.97-.08-.34-.03-.66-.09-.95-.19,0-.03,0-.05,0-.08,0-.03,0-.05,0-.08,0-.17-.04-.32-.12-.45-.08-.13-.12-.28-.12-.43v-.15c.1-.1.2-.21.28-.32.08-.11.17-.21.26-.3.09-.09.19-.16.31-.22.11-.06.26-.09.44-.09.24,0,.48.02.71.05.23.03.47.05.71.05.17,0,.34-.02.52-.06.28-.58.53-1.16.75-1.76.22-.59.38-1.2.5-1.81.09-.13.17-.28.25-.45.08-.17.14-.36.18-.55s.08-.38.1-.57c.02-.19.03-.36.03-.51.14-.17.24-.37.3-.61s.11-.5.14-.76c.04-.26.08-.52.12-.78s.13-.48.26-.67v-.17c.01-.19,0-.36-.06-.52.06-.03.1-.08.12-.17.01-.09.04-.17.08-.23.01-.59.08-1.17.19-1.74.12-.57.21-1.14.29-1.72v-.06c0-.06-.02-.1-.07-.11s-.07-.04-.07-.11c0-.12.02-.27.05-.46.03-.19.05-.35.07-.48.08-.69.12-1.38.12-2.05,0-.58-.02-1.15-.06-1.71-.04-.56-.08-1.13-.12-1.71l.15-.23c.05-.08.1-.15.13-.23.13-.05.23-.11.32-.16.08-.06.19-.09.34-.09.04,0,.07,0,.1,0,.03,0,.05,0,.08,0,.08.05.14.12.18.21s.09.17.13.25c.04.08.11.14.18.19s.19.06.33.04c.06.36.24.54.54.56.06.18.14.36.24.54.1.18.23.32.39.42-.01.05-.02.12-.02.21,0,.18.04.35.12.52.08.17.19.32.32.46v.04c0,.14-.05.24-.15.29.11.13.2.28.25.46.05.18.1.36.13.55.04.19.09.36.14.53s.16.29.3.38v.06c0,.06-.02.1-.07.12s-.07.05-.07.12c.23.42.39.88.48,1.38.09.5.2.98.35,1.44.05.05.11.08.18.1.07.01.12.04.16.1-.08.05-.12.14-.12.27s-.03.22-.1.29c.1.09.15.22.14.39,0,.17.04.3.14.37v.08c0,.05-.01.09-.04.12-.03.03-.04.07-.04.12v.08c.1.45.18.9.24,1.34.06.45.12.9.18,1.34.06.45.13.89.21,1.33.08.44.19.87.33,1.3.01.01.02.03.02.06,0,.06-.03.1-.08.11-.05,0-.08.04-.08.11s.02.14.07.22c.04.08.09.15.14.2-.01.05-.02.13-.02.23,0,.19.04.38.11.56.07.18.15.35.23.53s.16.35.22.55c.06.19.09.4.08.61.08.12.18.21.3.29s.25.15.37.21c.13.06.25.14.35.23.11.09.18.21.22.36-.1.09-.17.2-.21.34-.04.13-.11.25-.21.35.09.22.19.42.32.6.12.19.25.37.37.55l.4.54c.14.18.26.37.36.58.14,0,.24.04.31.12.06.08.17.11.31.1.05.1.07.22.06.35.26-.09.51-.13.77-.13.14,0,.27,0,.39.02s.25.02.37.02c.15,0,.29-.02.4-.06.05.08.09.16.12.26.03.1.04.19.06.3l.06.31c.03.1.06.19.12.27ZM49.33,20.15c-.18-.88-.36-1.76-.55-2.64-.19-.88-.35-1.76-.49-2.66-.08-.47-.13-.95-.17-1.42-.04-.47-.09-.94-.14-1.41-.06-.47-.13-.93-.23-1.39-.1-.46-.23-.91-.41-1.36v-.04s.01-.07.04-.1c.03-.03.04-.07.04-.13v-.08c-.17-.11-.28-.28-.35-.49-.06-.21-.12-.44-.16-.67s-.1-.47-.17-.69c-.07-.22-.19-.41-.35-.57-.06.74-.13,1.48-.2,2.22s-.12,1.47-.14,2.22c-.13.08-.21.21-.25.38-.04.18-.06.34-.06.48,0,.1,0,.21.02.32.01.11.04.22.08.34-.23.58-.4,1.17-.5,1.78-.1.61-.22,1.21-.35,1.81-.01.04-.04.12-.07.26-.03.13-.07.27-.11.41-.04.14-.07.27-.1.37-.03.11-.04.17-.04.18-.01.09-.02.18,0,.27,0,.09,0,.18,0,.27l-.29.29c-.05.49-.14.96-.28,1.41s-.27.92-.41,1.39c.09.01.18.02.26.03.08,0,.17,0,.26,0,.41,0,.82-.03,1.24-.09.42-.06.83-.11,1.24-.16.14-.03.29-.05.44-.07.15-.02.3-.03.44-.03.06-.01.14-.02.23,0,.09,0,.17,0,.23,0,.1-.03.17-.07.2-.12.03-.06.1-.09.2-.11.08.04.17.06.27.06.12,0,.22-.03.33-.08s.2-.11.31-.17Z"/>
  <path class="cls-1" d="M75.61,4.17c-.03.06-.08.18-.15.35-.08.17-.11.28-.11.33,0,.1,0,.23,0,.39,0,.16.04.26.14.3-.14.29-.23.59-.26.89-.03.3-.05.61-.05.92s0,.63-.02.94-.06.62-.15.91c.05.08.07.17.05.28-.02.11,0,.2.09.26-.06.1-.1.2-.12.3-.01.1-.02.2-.02.3,0,.21.02.4.06.6-.14.21-.21.43-.2.68s0,.5,0,.76c0,.22-.03.43-.09.63s-.09.42-.09.63c0,.06,0,.12.02.17s.02.11.02.17-.02.11-.07.12c-.04.02-.07.08-.07.18,0,.47-.03.93-.1,1.37-.06.44-.14.88-.24,1.31-.1.43-.2.86-.32,1.3-.12.44-.22.88-.31,1.32-.14.15-.25.33-.32.52s-.2.35-.37.46c-.17.42-.37.81-.62,1.15-.25.35-.52.67-.83.98-.3.31-.61.6-.93.89-.32.29-.63.59-.94.89-.13,0-.25,0-.37,0-.12,0-.25,0-.37,0-.28,0-.56-.01-.84-.04-.28-.03-.55-.07-.81-.13-.05-.18-.15-.3-.3-.35-.15-.06-.28-.14-.39-.26-.13-.12-.22-.24-.29-.38-.06-.14-.2-.24-.4-.29-.06-.19-.16-.42-.3-.67-.13-.26-.27-.52-.39-.79-.13-.27-.24-.53-.34-.78s-.14-.46-.14-.64c0-.06,0-.12.03-.18s.04-.12.05-.18c-.08-.09-.13-.2-.15-.35-.03-.14-.04-.28-.05-.43,0-.15-.02-.29-.05-.42-.03-.13-.08-.24-.17-.32-.15.1-.28.23-.36.38-.09.15-.17.32-.24.5s-.14.36-.2.54-.14.35-.23.5c-.18.14-.34.3-.47.48-.13.18-.27.36-.4.55s-.28.36-.43.52c-.15.16-.33.29-.54.39-.05.23-.14.43-.28.59s-.28.31-.43.44c-.15.13-.3.28-.44.42-.14.15-.24.33-.31.55-.22.1-.46.25-.73.45-.27.2-.54.4-.82.6-.27.2-.55.38-.83.53-.28.15-.52.22-.72.22-.17,0-.32-.02-.47-.05-.15-.03-.3-.07-.45-.11-.15-.04-.31-.07-.46-.11-.15-.03-.31-.04-.48-.03-.24-.26-.43-.55-.56-.87-.13-.33-.29-.63-.48-.91-.06-.38-.13-.77-.19-1.16-.06-.39-.1-.78-.1-1.16,0-.22.03-.42.08-.6.05-.19.08-.37.08-.57,0-.06,0-.12-.03-.18-.02-.06-.04-.12-.05-.18.09-.18.16-.37.21-.57.05-.2.09-.4.12-.6s.07-.41.11-.6c.04-.2.1-.39.17-.57.03-.15-.02-.27-.13-.35.09-.09.15-.19.17-.29.03-.1.04-.2.05-.31,0-.1,0-.21,0-.33s.01-.22.04-.33c.01-.05.04-.13.1-.23l.17-.33c.06-.12.12-.22.16-.32s.07-.17.07-.22c0-.09-.03-.19-.08-.29.05-.26.14-.51.26-.75.12-.24.21-.49.28-.75.06-.26.1-.48.12-.68.01-.2.07-.43.17-.7.01-.03.02-.06.02-.1,0-.05-.02-.08-.06-.1-.04-.01-.07-.04-.1-.08.15-.29.27-.61.35-.95.08-.34.15-.69.21-1.05s.11-.71.16-1.07.13-.69.23-1.01c-.04-.26-.07-.52-.1-.8-.03-.28-.04-.54-.04-.8,0-.29.03-.6.09-.9s.19-.58.39-.81c.1,0,.21,0,.34-.02.12-.01.23-.02.34-.02.15,0,.32.04.5.12.09.41.2.81.35,1.21.14.4.21.82.21,1.27,0,.22-.03.44-.08.65l-.13.63c-.04.2-.07.41-.1.62-.03.21-.02.42.02.62-.14.19-.22.41-.24.66s-.03.48-.03.7c-.13.18-.22.36-.29.54s-.11.36-.14.55c-.03.19-.06.37-.09.57-.03.19-.06.38-.1.58-.03.06-.07.14-.12.23-.06.09-.09.15-.09.19,0,.09.03.18.08.27-.03.04-.05.07-.08.09-.03.02-.04.05-.06.11-.04.14-.07.29-.09.45-.02.16-.05.31-.09.45-.06.32-.15.63-.26.94-.11.31-.22.61-.34.92,0,.26,0,.46-.03.61-.02.15-.04.29-.08.41-.03.12-.07.25-.12.38-.04.13-.09.3-.12.51-.04.19-.07.43-.11.71-.03.28-.06.57-.1.87-.03.3-.05.6-.07.88-.01.29-.02.53-.02.74,0,.37.04.73.11,1.08.07.35.19.69.37,1.01h.33c.08,0,.16,0,.25,0,.09,0,.17.03.25.07.09-.03.13-.06.13-.12v-.15s.03-.09.1-.15l.13.02c.13,0,.25-.02.35-.06.11-.04.22-.09.34-.15.24-.33.53-.61.85-.84.33-.23.62-.5.87-.81.06-.1.08-.22.06-.36.15-.03.27-.08.35-.17.08-.09.16-.19.24-.29s.16-.2.24-.3c.08-.1.19-.16.34-.2.06-.12.12-.24.17-.37.05-.13.11-.27.16-.39.06-.13.13-.25.21-.35.08-.11.19-.19.34-.26.22-.49.4-.99.56-1.51.15-.52.38-.99.69-1.43,0-.17,0-.32.02-.46.01-.14,0-.29-.02-.44.32-.44.52-.89.61-1.36.09-.47.13-.97.13-1.5,0-.43.14-.74.43-.9.29-.17.63-.25,1.03-.25h.19c.08,0,.15,0,.21.02.03.09.07.16.14.2s.14.09.22.14v.12c0,.18-.02.34-.07.49-.05.15-.07.3-.07.47,0,.08.01.18.04.31.13.37.23.71.3,1.02s.11.67.11,1.07c0,.35-.02.69-.05,1.05-.03.35-.07.7-.12,1.05.08.14.12.29.12.44,0,.1,0,.21-.03.32-.02.11-.03.21-.03.32,0,.22.04.43.11.64.07.21.15.42.23.62.08.21.16.41.22.61.06.21.09.41.08.61.22.27.41.55.59.83.17.29.39.54.64.76.1.03.19.04.25.04.08,0,.14,0,.19-.03.05-.02.1-.04.14-.06.04-.02.09-.03.14-.04s.13,0,.23,0c.23-.17.44-.35.63-.57.19-.21.37-.43.55-.64s.35-.44.53-.67c.18-.23.36-.45.56-.65.37-.92.67-1.84.9-2.76.23-.92.37-1.88.42-2.88,0-.14.03-.21.1-.21s.12-.04.17-.13v-.54c0-.41.02-.82.07-1.23s.14-.81.28-1.21c-.04-.15-.06-.31-.06-.46,0-.33.03-.66.09-.97.06-.31.09-.63.09-.95,0-.17-.02-.34-.05-.51-.03-.17-.1-.33-.2-.47l-.02-.11c0-.08.03-.14.09-.19.06-.05.1-.11.12-.17-.06-.17-.09-.34-.07-.52.02-.18.03-.36.03-.54,0-.1-.01-.21-.04-.33-.03-.12-.09-.2-.19-.27.12-.13.2-.29.25-.5.05-.2.09-.42.11-.65.02-.23.03-.46.03-.68s.01-.41.04-.57c.12-.13.25-.24.39-.34.15-.1.31-.14.49-.14.23,0,.4.08.5.24.1.16.18.35.23.58.05.22.09.45.12.68.03.23.09.42.18.56Z"/>
  <path class="cls-1" d="M104.19,11.95c-.03.15-.07.33-.12.52s-.13.37-.23.53c-.1.16-.21.29-.35.4-.14.11-.31.16-.5.16-.14,0-.28-.02-.42-.05-.14-.03-.29-.05-.44-.05-.06,0-.13.02-.2.07s-.14.07-.2.07-.12,0-.16-.03c-.04-.02-.1-.03-.16-.03-.04,0-.11.01-.21.04-.1.03-.21.05-.33.08-.12.03-.22.05-.33.09-.1.03-.17.05-.21.07-.35.12-.69.22-1.04.31-.35.09-.7.15-1.08.17-.08-.03-.19-.05-.35-.09-.15-.03-.27-.05-.35-.05-.15,0-.25.06-.3.19-.04.13-.13.22-.26.29-.15.09-.35.14-.58.15-.23.01-.46.03-.69.06-.23.03-.44.07-.64.14-.2.07-.34.2-.43.39-.06-.01-.13-.02-.2-.03s-.14,0-.22,0c-.41,0-.79.08-1.15.24-.36.16-.72.3-1.09.43.06.12.11.26.13.42.03.17.05.33.08.49.03.16.06.31.11.46s.12.26.24.34c0,.08-.02.14-.05.19-.03.05-.07.1-.11.13l-.13.13s-.06.1-.08.17c-.04.15-.06.31-.06.47s-.09.28-.27.35c.01.04.02.11.02.21,0,.13-.02.25-.06.36-.04.11-.05.24-.04.38-.22.24-.4.49-.55.75-.15.26-.26.53-.34.83-.47.47-.96.95-1.45,1.43-.49.48-1,.94-1.52,1.39-.52.45-1.05.87-1.6,1.28-.55.4-1.12.76-1.71,1.07h-.13c-.29,0-.52.05-.69.15-.17.1-.38.19-.63.27-.19-.05-.42-.08-.69-.08-.15,0-.31,0-.47.02-.16.01-.32.02-.49.02-.22,0-.41-.03-.59-.08-.17-.05-.34-.11-.5-.17s-.32-.13-.49-.19c-.17-.06-.35-.11-.54-.13-.79-.79-1.42-1.72-1.88-2.77-.46-1.06-.69-2.14-.69-3.25,0-.51.07-1.01.21-1.51.14-.49.21-.99.21-1.49.23-.46.43-.93.6-1.42.17-.49.35-.97.53-1.46.18-.49.37-.96.59-1.43.21-.47.46-.91.76-1.33.06-.33.17-.62.31-.86s.29-.51.46-.81c0-.28.06-.54.18-.78s.2-.5.22-.8c.2-.19.37-.41.5-.65s.25-.49.36-.75c.12-.26.25-.5.39-.74s.35-.44.6-.6c.03-.09.04-.19.05-.3,0-.11.04-.19.09-.26l.4-.44c.13-.17.25-.34.36-.51.11-.17.23-.33.35-.47.08-.08.16-.14.25-.19.09-.05.17-.11.23-.17.06-.06.09-.15.07-.25-.02-.1,0-.19.07-.25.03-.03.06-.05.12-.08.05-.03.1-.05.13-.08.17-.12.31-.23.42-.35s.27-.2.48-.25c.18-.14.34-.28.49-.42.15-.14.3-.27.45-.38.15-.12.32-.21.5-.28.18-.07.4-.11.67-.11.05,0,.1,0,.15,0s.1,0,.15,0c.52.49.85,1.08.98,1.79-.14.18-.25.37-.34.58-.08.2-.18.41-.28.61-.22.08-.42.19-.61.34s-.38.3-.57.45c-.19.15-.38.29-.58.4-.2.12-.42.17-.66.17-.1.09-.27.23-.49.43-.22.2-.45.41-.69.62-.24.22-.45.42-.65.61s-.32.33-.37.4c-.04.06-.07.12-.1.17-.03.05-.05.11-.08.17l-.5.84c-.28.49-.57.96-.86,1.43-.29.47-.55.96-.77,1.47-.1.23-.19.46-.25.69s-.13.47-.19.73c-.03.08-.06.15-.1.23-.04.08-.07.15-.1.21-.14.27-.26.52-.35.75-.09.23-.14.5-.15.81-.32.72-.62,1.44-.89,2.16-.28.72-.48,1.47-.62,2.24.08.26.11.52.11.78s0,.52,0,.78c0,.32.02.59.07.8.04.21.11.4.19.58.08.17.18.35.28.54.1.19.21.41.33.66.19.15.36.32.52.49.15.17.3.36.44.57.49.24.98.36,1.48.36.36,0,.72-.06,1.09-.17s.73-.26,1.08-.43c.35-.17.69-.36,1.03-.57.33-.21.65-.4.96-.6.54-.32,1-.67,1.4-1.04.4-.37.76-.76,1.08-1.17.33-.41.63-.85.91-1.31.28-.47.58-.96.88-1.49.01-.06.04-.14.08-.23l.12-.29c.04-.1.07-.19.11-.28.03-.08.05-.14.05-.16,0-.1-.02-.18-.07-.22-.05-.04-.07-.09-.07-.14,0-.1.03-.17.08-.21s.11-.08.18-.12c.07-.04.13-.08.19-.13s.09-.15.09-.29c-.03-.01-.07-.02-.13-.02s-.13,0-.19.02c-.06.01-.13.02-.19.02-.15,0-.28-.05-.38-.15-.06.03-.13.07-.19.12-.06.06-.12.12-.18.18-.06.06-.11.12-.16.17s-.1.08-.13.08c-.06,0-.11-.01-.14-.04-.03-.03-.07-.04-.12-.04-.22,0-.41.05-.58.15-.17.1-.35.19-.54.25-.04,0-.08,0-.12,0-.04,0-.08,0-.12,0-.14,0-.28.02-.41.07s-.26.09-.38.14c-.12.05-.25.1-.37.13-.13.04-.26.05-.38.04-.28.1-.54.21-.78.33-.24.11-.51.16-.82.13-.09.04-.18.08-.28.12-.1.04-.19.1-.28.16-.08.03-.13.04-.17.04-.06,0-.12-.03-.15-.1-.1.12-.24.2-.4.24-.17.04-.34.08-.52.12-.18.03-.35.07-.51.12-.16.04-.29.13-.37.26-.14-.12-.31-.17-.5-.17s-.38.04-.56.11-.37.11-.58.11c-.08,0-.13-.01-.15-.04-.05-.14-.11-.28-.17-.42-.06-.14-.17-.24-.31-.31-.03-.14-.05-.28-.07-.41-.02-.13-.03-.27-.03-.39,0-.35.1-.66.31-.94.18-.06.36-.12.55-.16s.37-.1.55-.16c.14.03.28.04.42.06.14.01.28.02.42.02.52,0,1.04-.07,1.54-.2s.99-.28,1.48-.43c.46-.14.93-.27,1.4-.38.47-.11.95-.24,1.42-.38.45-.12.89-.25,1.32-.39.43-.15.89-.24,1.36-.28.31-.22.68-.36,1.12-.44.44-.08.85-.16,1.22-.25.59-.14,1.17-.28,1.75-.43.58-.15,1.16-.28,1.77-.39.67-.14,1.31-.31,1.95-.52.63-.2,1.27-.42,1.91-.65h.19c.22,0,.44-.03.67-.08.23-.05.46-.08.69-.08.06,0,.12,0,.16,0s.09,0,.14,0c.04,0,.13-.03.29-.09.15-.06.26-.1.33-.12.17.18.35.34.56.48.2.14.38.3.54.48Z"/>
</svg>