<?xml version="1.0" encoding="UTF-8"?>
<svg id="Layer_1" data-name="Layer 1" xmlns="http://www.w3.org/2000/svg" viewBox="0 0 50 50">
  <defs>
    <style>
      .cls-1 {
        fill: #f2f2f2;
      }
    </style>
  </defs>
  <path class="cls-1" d="m21.97,13.91c0,.77-.1,1.48-.3,2.13-.2.65-.46,1.27-.78,1.87-.32.59-.66,1.18-1.02,1.76-.36.58-.71,1.2-1.03,1.84-.08,0-.14.02-.17.06-.03.04-.06.09-.08.15-.02.06-.05.12-.08.16-.03.05-.09.07-.17.07-.12.3-.28.58-.47.84-.19.26-.39.52-.6.77s-.41.5-.61.76c-.2.26-.37.53-.52.83h-.2c-.73,1.05-1.55,2-2.46,2.84-.91.84-1.91,1.59-2.99,2.25-.03.08-.07.15-.12.2-.05.05-.07.13-.04.22-.15.08-.27.19-.38.31-.1.13-.2.26-.29.39-.09.13-.19.27-.29.4-.1.13-.23.23-.4.29-.2-.04-.4-.07-.58-.1-.18-.03-.37-.05-.56-.06-.08,0-.16,0-.24,0s-.16,0-.22,0c-.15-.03-.27-.08-.38-.17-.1-.09-.25-.13-.44-.13-.09,0-.17,0-.22.02-.11-.19-.23-.38-.37-.58-.14-.2-.21-.41-.21-.64,0-.18.02-.34.07-.49s.07-.3.07-.47c0-.32-.06-.64-.17-.95-.12-.31-.17-.63-.17-.95,0-.11.01-.21.04-.31.03-.1.04-.21.04-.31,0-.12-.05-.23-.16-.32.01-.07.04-.14.08-.2s.06-.14.06-.22c.03-.11.03-.23.02-.35-.01-.13-.02-.25-.02-.36,0-.28.01-.57.04-.85.03-.28.09-.56.18-.83-.01-.08-.03-.16-.06-.22l-.08-.2c.09-.28.16-.6.18-.95.03-.35.04-.7.04-1.05v-1.07c0-.35.02-.68.06-.99.03-.13.06-.27.09-.4.03-.13.05-.25.05-.38,0-.11-.02-.21-.06-.29s-.09-.17-.16-.25c.09-.03.15-.08.16-.17.01-.09.02-.17.02-.23,0-.19-.03-.4-.1-.63.05-.23.09-.46.1-.7.01-.24.02-.47.02-.7,0-.81-.05-1.61-.15-2.39-.1-.78-.17-1.57-.19-2.37h-.06c-.09,0-.17.02-.22.06-.05.04-.11.08-.16.13-.05.05-.12.09-.18.12-.07.03-.15.04-.24.03-.16.19-.35.35-.56.49-.21.14-.43.26-.66.37-.23.11-.47.21-.71.29s-.47.17-.69.25c-.19-.07-.35-.18-.49-.33s-.26-.31-.39-.48c-.01-.05-.02-.11-.02-.16v-.16c0-.38.09-.67.26-.86.18-.2.36-.43.57-.7h.1c.07,0,.12.01.17.04.05.03.1.04.17.04h.06c.39-.32.81-.58,1.25-.78.44-.2.89-.35,1.37-.46.2-.2.41-.36.62-.47s.46-.16.74-.16c.07,0,.15,0,.23,0s.17.02.23.03c.55-.26,1.08-.48,1.57-.66s1.06-.27,1.71-.27c.08,0,.14-.02.17-.06.03-.04.06-.08.09-.13.03-.05.05-.09.08-.13.03-.04.07-.06.14-.06,0,.03,0,.07.02.12s.05.08.1.08.1-.02.15-.05c.05-.03.1-.05.17-.05s.11.05.14.14c.15-.09.29-.18.43-.26.13-.08.28-.14.45-.18.2.04.41.07.62.1s.42.04.64.04c.16,0,.32,0,.49-.03s.3-.08.43-.19c.05-.01.08.01.08.08.12.11.25.18.39.21.13.03.28.05.43.06.15,0,.3.02.45.03.15.01.28.06.41.14.11.03.2.07.26.13.07.06.16.11.26.15.08.03.19.05.33.06.14.01.25.04.31.08.07.03.1.07.11.13s.04.11.11.15c.12.09.28.15.49.17s.38.08.53.19c.05.3.2.49.45.59.24.09.48.19.71.28.08.08.11.18.08.28.16.12.31.26.44.41.13.15.25.31.36.48s.23.33.33.5c.11.16.24.31.39.45-.01.12,0,.22.05.28.05.07.06.17.03.3.16.15.31.34.45.59-.08.12-.12.26-.12.41,0,.13.02.27.06.41s.06.27.06.41v.47Zm-1.88-.45c0-.39-.07-.77-.22-1.15-.15-.37-.28-.74-.38-1.1-.18,0-.29-.06-.33-.19-.05-.13-.13-.24-.25-.33-.26-.05-.42-.25-.49-.59-.27-.11-.55-.23-.83-.37-.28-.13-.52-.32-.71-.57-.49-.15-.98-.3-1.47-.46s-1-.23-1.51-.23c-.09,0-.18,0-.25.01s-.15,0-.21,0c-.11,0-.22.02-.34.06-.12.04-.24.06-.34.06-.12,0-.24-.04-.36-.12-.27.15-.56.26-.88.34-.32.08-.64.15-.96.21s-.64.13-.95.22c-.31.09-.59.22-.83.4-.08-.03-.16-.05-.23-.06s-.15-.02-.21-.02c-.12,0-.22.03-.28.08-.04.03-.06.06-.07.1,0,.04-.01.08-.02.13,0,.05-.02.08-.05.11-.03.03-.08.03-.16.02,0,.07,0,.13-.01.18,0,.05-.01.12-.01.18,0,.35.04.7.11,1.04.07.34.11.69.11,1.04,0,.12,0,.25-.02.38-.01.13-.04.25-.08.38.07.16.1.34.11.53,0,.19,0,.38,0,.57s0,.38.02.56c.01.18.06.35.14.52-.04.2-.07.41-.08.61-.01.2-.02.41-.02.61,0,.47.02.94.07,1.4.05.46.07.93.07,1.4,0,.12,0,.25,0,.38,0,.14-.02.27-.03.41-.03.18-.07.34-.14.51-.07.16-.1.34-.1.53,0,.12,0,.25.02.38.01.13.02.26.02.39,0,.05,0,.11,0,.15,0,.05-.01.1-.01.15-.07.47-.12.95-.16,1.44s-.06.97-.06,1.44c0,.45.01.89.04,1.33s.07.88.12,1.33c-.05.09-.08.2-.08.32,0,.19.05.38.14.58.09.2.24.33.43.39.43-.16.83-.38,1.21-.64.37-.26.75-.53,1.12-.8.09-.07.24-.16.43-.27.19-.12.32-.2.39-.25.07-.05.12-.11.17-.17.05-.06.1-.12.17-.19l.89-.95c.51-.53,1.02-1.06,1.53-1.6.51-.54.98-1.11,1.41-1.72.12-.19.24-.38.36-.56s.24-.38.34-.58c.05-.07.09-.15.12-.23.03-.09.07-.17.14-.23.04-.05.09-.11.15-.16.06-.05.11-.11.15-.16.11-.12.21-.25.31-.38.1-.13.21-.27.31-.42.3-.43.57-.87.83-1.31.26-.44.54-.87.85-1.31.03-.27.08-.52.16-.76s.16-.47.24-.69.15-.46.2-.7c.05-.24.07-.51.04-.81.07-.09.12-.16.17-.2.05-.04.07-.12.07-.24v-.34Z"/>
  <g>
    <path class="cls-1" d="m27.01,24.69c0,.31-.04.6-.12.86-.08.26-.19.51-.31.75-.13.24-.27.48-.41.71s-.29.48-.42.74c-.03,0-.06,0-.07.02-.01.02-.02.04-.03.06,0,.02-.02.05-.03.07-.01.02-.04.03-.07.03-.05.12-.11.23-.19.34-.08.11-.16.21-.24.31-.08.1-.17.2-.25.31s-.15.22-.21.33h-.08c-.29.42-.62.81-.99,1.14-.37.34-.77.64-1.21.91-.01.03-.03.06-.05.08-.02.02-.03.05-.02.09-.06.03-.11.08-.15.13-.04.05-.08.1-.12.16s-.08.11-.12.16-.09.09-.16.12c-.08-.02-.16-.03-.23-.04-.07-.01-.15-.02-.22-.02-.03,0-.07,0-.1,0-.03,0-.06,0-.09,0-.06-.01-.11-.03-.15-.07-.04-.04-.1-.05-.18-.05-.04,0-.07,0-.09,0-.04-.08-.09-.15-.15-.23s-.09-.17-.09-.26c0-.07,0-.14.03-.2.02-.06.03-.12.03-.19,0-.13-.02-.26-.07-.38-.05-.13-.07-.25-.07-.38,0-.04,0-.09.02-.13.01-.04.02-.08.02-.13,0-.05-.02-.09-.07-.13,0-.03.02-.05.03-.08.02-.03.02-.06.02-.09.01-.04.01-.09,0-.14s0-.1,0-.14c0-.11,0-.23.02-.34.01-.11.04-.23.07-.33,0-.03-.01-.06-.02-.09l-.03-.08c.04-.11.06-.24.07-.38.01-.14.02-.28.02-.42v-.43c0-.14,0-.28.02-.4.01-.05.02-.11.04-.16.01-.05.02-.1.02-.15,0-.04,0-.08-.02-.12-.02-.04-.04-.07-.07-.1.04-.01.06-.03.07-.07s0-.07,0-.09c0-.08-.01-.16-.04-.25.02-.09.04-.19.04-.28s0-.19,0-.28c0-.33-.02-.65-.06-.96-.04-.32-.07-.63-.08-.96h-.02s-.07,0-.09.02c-.02.02-.04.03-.07.05-.02.02-.05.04-.07.05-.03.01-.06.02-.1.01-.07.08-.14.14-.22.2-.08.05-.17.1-.27.15-.09.04-.19.08-.29.12s-.19.07-.28.1c-.08-.03-.14-.07-.2-.13-.05-.06-.11-.13-.16-.19,0-.02,0-.04,0-.07v-.07c0-.15.04-.27.11-.35.07-.08.15-.17.23-.28h.04s.05,0,.07.02.04.02.07.02h.02c.16-.13.33-.24.5-.31.18-.08.36-.14.55-.18.08-.08.16-.14.25-.19.08-.04.18-.07.3-.07.03,0,.06,0,.09,0,.04,0,.07,0,.09.01.22-.1.43-.19.63-.27.2-.07.43-.11.69-.11.03,0,.06,0,.07-.02.01-.02.03-.03.04-.05.01-.02.02-.04.03-.05.01-.02.03-.02.06-.02,0,.01,0,.03,0,.05s.02.03.04.03.04,0,.06-.02.04-.02.07-.02.05.02.06.06c.06-.04.12-.07.17-.11.05-.03.11-.06.18-.07.08.02.16.03.25.04s.17.02.26.02c.07,0,.13,0,.2-.01s.12-.03.17-.08c.02,0,.03,0,.03.03.05.04.1.07.16.09.05.01.11.02.17.02.06,0,.12,0,.18.01.06,0,.11.02.16.06.04.01.08.03.11.05s.06.04.11.06c.03.01.08.02.14.02.06,0,.1.02.13.03.03.01.04.03.04.05,0,.02.02.04.04.06.05.04.11.06.2.07.08,0,.15.03.21.08.02.12.08.2.18.24s.19.08.29.11c.03.03.04.07.03.11.07.05.12.1.18.16.05.06.1.12.15.19.05.07.09.13.13.2.04.07.1.13.16.18,0,.05,0,.09.02.11.02.03.02.07.01.12.07.06.13.14.18.24-.03.05-.05.1-.05.16,0,.05,0,.11.02.16.02.05.02.11.02.16v.19Zm-.76-.18c0-.16-.03-.31-.09-.46-.06-.15-.11-.3-.16-.45-.07,0-.12-.03-.13-.08s-.05-.1-.1-.13c-.1-.02-.17-.1-.2-.24-.11-.04-.22-.09-.33-.15-.11-.05-.21-.13-.29-.23-.2-.06-.39-.12-.59-.18-.2-.06-.4-.09-.61-.09-.04,0-.07,0-.1,0-.03,0-.06,0-.09,0-.04,0-.09,0-.14.02-.05.02-.1.02-.14.02-.05,0-.1-.02-.15-.05-.11.06-.23.11-.36.14-.13.03-.26.06-.39.09s-.26.05-.38.09c-.13.04-.24.09-.33.16-.03-.01-.06-.02-.09-.02-.03,0-.06,0-.09,0-.05,0-.09.01-.11.03-.02.01-.03.02-.03.04,0,.02,0,.03,0,.05,0,.02,0,.03-.02.04-.01.01-.03.01-.07,0,0,.03,0,.05,0,.07,0,.02,0,.05,0,.07,0,.14.01.28.04.42.03.14.04.28.04.42,0,.05,0,.1,0,.15s-.02.1-.03.15c.03.07.04.14.04.21,0,.08,0,.15,0,.23s0,.15,0,.22c0,.07.02.14.06.21-.02.08-.03.16-.03.25s0,.16,0,.25c0,.19,0,.38.03.56.02.19.03.37.03.56,0,.05,0,.1,0,.16,0,.05,0,.11-.01.16-.01.07-.03.14-.06.2s-.04.14-.04.21c0,.05,0,.1,0,.15s0,.11,0,.16c0,.02,0,.04,0,.06,0,.02,0,.04,0,.06-.03.19-.05.38-.07.58-.02.2-.02.39-.02.58,0,.18,0,.36.02.54.01.18.03.36.05.54-.02.04-.03.08-.03.13,0,.08.02.15.06.23s.1.13.17.16c.17-.07.34-.15.49-.26s.3-.21.45-.32c.04-.03.1-.06.17-.11.08-.05.13-.08.16-.1s.05-.04.07-.07.04-.05.07-.08l.36-.38c.21-.21.41-.43.62-.65.2-.22.39-.45.57-.69.05-.08.1-.15.15-.22.05-.07.1-.15.14-.23.02-.03.04-.06.05-.09.01-.04.03-.07.06-.09.02-.02.04-.04.06-.07.02-.02.04-.04.06-.07.04-.05.09-.1.13-.15.04-.05.08-.11.13-.17.12-.17.23-.35.33-.53.1-.18.22-.35.34-.53.01-.11.03-.21.07-.31s.07-.19.1-.28.06-.18.08-.28c.02-.1.03-.21.02-.33.03-.04.05-.07.07-.08.02-.02.03-.05.03-.1v-.14Z"/>
    <path class="cls-1" d="m33.16,29.8c-.02.08-.05.14-.1.18-.05.05-.11.08-.18.11s-.14.04-.22.05c-.07,0-.14.01-.2.01-.03,0-.05,0-.08,0s-.05,0-.08,0-.04.01-.04.04-.01.05-.04.06c-.03-.01-.05-.02-.08-.02-.03,0-.05,0-.08,0-.04,0-.08,0-.11,0-.04,0-.07,0-.1,0-.04,0-.08,0-.09-.02s-.04-.02-.05-.04-.03-.03-.04-.04-.03-.03-.06-.04c-.04-.02-.07-.02-.09,0-.02.01-.06,0-.11-.05-.07-.05-.12-.12-.17-.2-.05-.08-.09-.16-.14-.25s-.09-.17-.14-.26-.11-.16-.17-.23h-.07c-.1,0-.17.04-.2.12-.03-.02-.05-.04-.08-.06s-.06-.04-.09-.06c-.13.04-.26.07-.39.1s-.27.04-.41.04h-.11s-.07,0-.11-.02c-.05.02-.1.05-.15.08-.04.03-.09.04-.15.04-.03,0-.07-.01-.11-.03-.03,0-.05.01-.04.04,0,.03-.02.04-.05.04h-.07c-.08,0-.15,0-.22,0-.07,0-.15,0-.22,0-.1,0-.21-.01-.32-.04-.03.02-.06.02-.09.02-.02.01-.04.03-.05.05-.01.02-.02.05-.03.07-.01.02-.03.04-.04.05s-.04.02-.08.01c-.01.07-.04.12-.08.16-.04.04-.07.09-.07.17-.06.03-.11.07-.15.12-.04.05-.08.1-.11.16s-.08.11-.12.16c-.04.05-.09.09-.15.11-.03.03-.04.08-.02.16-.06.05-.13.09-.22.13-.09.04-.17.06-.25.06-.16,0-.27-.08-.33-.25,0-.05,0-.11.01-.18s.02-.12.04-.18c.02-.06.04-.11.07-.16.03-.05.08-.08.14-.1,0-.05-.02-.08-.05-.1s-.05-.05-.04-.1c.15-.07.28-.16.38-.28s.21-.24.3-.36c.09-.13.18-.26.27-.39s.2-.25.31-.35v-.17c.16-.17.27-.37.32-.59.06-.01.1-.04.12-.08.02-.04.03-.1.03-.16.03,0,.04-.01.05-.04,0-.02.03-.03.07-.02.05-.13.1-.25.16-.36s.12-.22.18-.33c.06-.11.11-.23.16-.35.05-.12.08-.25.1-.4.08,0,.12-.04.13-.11,0-.07.02-.13.03-.18.08-.08.14-.17.18-.27.04-.1.08-.21.11-.32s.07-.22.11-.33.1-.21.18-.3v-.02s-.01-.04-.03-.05c-.02,0-.03-.03-.03-.05,0,0,0-.01,0-.02.07-.03.11-.07.15-.13s.08-.11.15-.13c.11.09.22.15.3.17.09.02.2.03.34.04.07.08.11.17.12.27,0,.11.03.21.05.31.04.17.09.34.14.51.05.17.09.34.12.51.02.1.05.2.09.29s.07.19.09.29c.01.08.01.16,0,.26-.01.1,0,.18.03.25l.06.13c.03.06.05.12.07.19.02.06.04.13.05.2.04.16.08.34.12.53.04.19.09.36.17.51.03.05.07.09.13.11s.12.04.19.04.14.01.21,0c.07,0,.13,0,.18,0h.08s.07,0,.1.02c.02.04.03.08.03.11,0,.07-.02.12-.07.16s-.07.08-.07.13c0,.03.01.06.03.09-.02,0-.05,0-.1,0-.12,0-.25.02-.37.06.04.09.1.17.18.23s.15.12.23.18c.05-.04.11-.07.17-.07.07,0,.13.01.18.04s.12.04.18.04c.05,0,.08,0,.11-.02.04.05.08.1.11.15s.06.1.11.14Zm-2.56-1.31c-.01-.09-.03-.16-.05-.2-.02-.04-.04-.09-.06-.15-.02-.08-.04-.16-.04-.25,0-.09-.02-.17-.04-.25-.04-.18-.08-.37-.13-.56-.05-.18-.1-.36-.18-.54.02-.03.03-.06.03-.09v-.02c-.05-.05-.08-.12-.11-.2s-.04-.16-.06-.24c-.02-.08-.04-.15-.07-.22-.03-.07-.08-.12-.14-.17-.02.03-.02.07-.02.11,0,.04,0,.07.01.11,0,.03.01.07.01.11-.05.03-.09.07-.12.13-.02.06-.06.1-.12.13-.04.17-.11.34-.19.5-.08.15-.17.31-.26.46s-.18.31-.26.46-.15.32-.2.49c-.07.05-.12.11-.14.19-.02.08-.04.15-.04.23.05.03.1.04.17.04.06,0,.12,0,.18,0s.12,0,.17.02c.05.01.1.04.15.08.07-.02.15-.04.23-.04s.15-.03.21-.07c.11.04.23.06.35.06.07,0,.13,0,.19-.02.06-.01.12-.02.18-.04.05.01.09.03.11.05s.07.03.12.03c.03-.02.04-.04.05-.07,0-.02.02-.05.04-.07Z"/>
    <path class="cls-1" d="m39.96,25.18h-.03s-.02,0-.03,0c-.01,0-.02.01-.02.02.01.04.02.07.02.09,0,.07-.02.12-.06.17-.04.05-.06.09-.06.12,0,.02,0,.03.03.04.02.01.03.02.04.02-.03.03-.05.07-.07.11s-.05.07-.07.1c.01.19.03.38.07.56.04.18.05.37.05.55,0,.09,0,.18-.03.27s-.04.18-.06.27c-.02.09-.04.18-.06.27s-.03.18-.03.27c-.07.14-.15.28-.23.4s-.14.27-.18.42c-.13.08-.23.17-.32.28s-.18.22-.27.33c-.19.07-.36.15-.52.26-.03,0-.05,0-.07,0h-.06c-.21,0-.38-.04-.53-.11s-.27-.18-.38-.3c-.11-.12-.2-.26-.27-.42-.08-.16-.15-.32-.21-.49-.12.09-.24.2-.34.32-.1.12-.2.23-.31.35-.03.04-.07.09-.12.15-.05.06-.09.1-.13.13-.02.01-.04.02-.07.03-.02,0-.05.02-.08.03-.15.09-.27.2-.36.35-.11.04-.21.09-.31.15-.1.05-.2.11-.29.17-.1,0-.21.01-.31.02-.1,0-.2.01-.3.01-.15,0-.26,0-.32-.03-.06-.02-.11-.04-.15-.07-.04-.03-.07-.07-.11-.11-.04-.04-.1-.09-.2-.14-.03-.07-.05-.14-.08-.21-.02-.07-.06-.14-.1-.2v-.12s0-.09,0-.14c0-.04-.01-.08-.03-.12s-.04-.06-.08-.07c0-.2.02-.4.07-.6.05-.2.09-.39.12-.6.03-.11.04-.23.05-.35,0-.03,0-.06,0-.09s0-.06.02-.1c.01-.03.03-.06.06-.08.03-.02.05-.05.06-.1.03-.08.04-.16.05-.25,0-.09.01-.18.02-.26.03-.16.06-.33.09-.49s.08-.32.13-.48c0-.03,0-.05,0-.07v-.08c0-.21.01-.41.04-.6.03-.2.04-.4.04-.6,0-.1,0-.2-.02-.31.03-.05.06-.1.09-.15.04-.05.08-.08.14-.11.11.06.23.12.34.19.11.07.22.14.32.22v.2c0,.16,0,.33-.01.5,0,.18-.02.36-.05.54-.02.18-.06.35-.09.52s-.09.32-.16.47v.26c-.1.17-.16.36-.2.55s-.07.38-.11.57c-.01.06-.03.13-.07.21-.03.08-.05.15-.05.21,0,.03,0,.05.01.08,0,.03.02.05.02.08-.04.1-.07.2-.07.31,0,.11-.02.22-.04.33.04.07.08.15.12.22.04.08.07.16.12.24h.08s.1,0,.15,0c.05,0,.11.01.16.01.03,0,.05,0,.08,0,.03,0,.05,0,.08-.01.03-.06.08-.11.13-.14.05-.04.11-.07.17-.09.06-.03.11-.06.16-.09.05-.03.09-.08.13-.14h.11s.03-.04.06-.07c.03-.03.06-.05.09-.08.03-.03.05-.05.07-.08.02-.03.03-.05.02-.07.07-.03.12-.06.17-.11s.09-.1.14-.15c.04-.05.09-.1.13-.15.04-.05.1-.09.16-.12,0-.01,0-.02,0-.04,0-.05.02-.09.04-.11.03-.03.04-.08.02-.15h.02s.05,0,.06-.02c.01-.02.02-.04.03-.06,0-.02.02-.04.03-.06.01-.02.03-.03.06-.04v-.02c0-.1.02-.19.06-.28.04-.09.06-.18.06-.28,0-.03,0-.05,0-.08s-.01-.05-.02-.08c.05-.05.08-.12.09-.19.01-.07.02-.14.02-.22,0-.08,0-.15.01-.23s.03-.15.07-.22c0-.05-.02-.09-.06-.11l.1-.13s.07-.08.11-.11h.02c.06,0,.11.01.16.04s.09.06.13.1c.04.04.08.07.13.11s.09.06.15.08v.18c.05.02.1.06.12.11,0,.15,0,.29-.01.44,0,.15,0,.29,0,.43,0,.22,0,.43.02.65.01.22.04.43.08.64.06.06.12.12.18.18s.11.13.14.2h.1c.19,0,.34-.06.44-.18.1-.12.18-.27.22-.43.08-.04.14-.09.18-.16.04-.07.07-.14.1-.23.02-.08.05-.16.07-.25.02-.08.05-.16.09-.22,0-.07,0-.13,0-.2v-.2c0-.32-.01-.63-.04-.94-.03-.31-.05-.62-.05-.94-.02-.04-.04-.1-.05-.16l-.02-.18c0-.06-.02-.12-.04-.17-.02-.05-.05-.09-.09-.11.02-.05.02-.12.02-.2,0-.07,0-.14-.02-.21-.01-.07-.03-.14-.04-.21.04-.04.08-.08.11-.12.03-.04.07-.06.14-.06.04,0,.07.01.1.03.03.02.06.05.09.07s.06.05.09.07c.03.02.07.03.11.03.01,0,.02,0,.04,0,.01,0,.03,0,.04,0,.05.05.1.12.13.2.04.08.07.17.1.26s.06.18.1.27c.04.09.08.17.13.24,0,.02,0,.03,0,.04,0,.01,0,.03,0,.04,0,.05,0,.1.02.15.02.05.03.1.04.15Z"/>
    <path class="cls-1" d="m49,25.88s-.05.08-.09.1c-.05.02-.09.03-.14.04-.05.01-.09.03-.13.05s-.07.06-.08.12h-.02s-.04,0-.04-.01c0-.01-.02-.03-.02-.04,0-.01-.01-.03-.02-.04s-.02-.02-.04-.02c-.06,0-.12,0-.18.02s-.11.02-.17.02c-.08,0-.16-.01-.22-.03-.04.01-.06.04-.06.07,0,.04-.02.06-.05.07-.03.01-.06.01-.1.01-.04,0-.08,0-.11.01l-.26.07c-.09.02-.17.03-.26.03-.05,0-.08,0-.11,0-.08.07-.17.11-.28.14-.1.03-.21.06-.32.08-.11.02-.22.06-.33.09-.11.04-.2.1-.28.18-.04-.01-.08-.02-.11-.02-.07,0-.13.01-.19.04-.05.03-.11.06-.17.08-.03.01-.05.02-.08.02s-.06,0-.09.02-.05.03-.06.05c0,.02-.03.05-.05.07,0,.2.02.39.06.58s.06.39.06.58v.03c.01.09.04.18.09.26s.07.16.07.24c0,.03,0,.06-.02.09.14.03.24.1.28.22.05.11.08.23.11.36.03.13.07.25.12.35.05.11.15.18.31.21.01.05.02.11.02.17,0,.06,0,.11,0,.17,0,.08,0,.15-.02.22-.02.07-.05.14-.1.2-.08,0-.14,0-.18,0s-.1.02-.17.05c-.11-.07-.21-.14-.29-.22-.08-.08-.16-.17-.24-.27-.07-.09-.15-.19-.22-.29s-.15-.2-.23-.29c-.28.07-.57.12-.87.14s-.59.04-.89.04c-.01.01-.03.02-.05.02s-.04,0-.06,0-.04,0-.05.02c-.01,0-.02.02-.01.04-.04-.02-.08-.04-.13-.04-.05,0-.09-.01-.13-.01-.03,0-.05,0-.08,0s-.05.01-.08.03c-.21-.04-.41-.09-.6-.16-.19-.07-.39-.12-.59-.17,0-.04-.01-.08-.03-.09-.02-.02-.04-.05-.06-.09-.23-.14-.42-.31-.58-.51-.16-.2-.22-.45-.19-.74l-.06-.11c0-.09.02-.15.06-.19-.02-.04-.06-.08-.11-.11.05-.08.09-.16.13-.24.04-.08.07-.17.08-.26,0-.03,0-.05,0-.07s0-.05.02-.07c.01-.03.03-.07.04-.11s.04-.08.05-.11c.09-.18.18-.36.29-.54.11-.17.24-.32.4-.45.01-.09.04-.17.08-.23s.09-.12.14-.17.1-.1.16-.16.09-.12.12-.2c.11-.09.22-.18.33-.27.11-.09.21-.19.28-.31.1-.03.19-.08.28-.13.09-.05.16-.12.22-.2.13-.01.26-.04.39-.07s.26-.06.4-.06c.06,0,.13.01.22.04s.15.07.19.13c0,.01,0,.02,0,.04v.04s.02.02.03.03c0,0,.02,0,.04,0,0,.12-.01.24-.04.36-.03.12-.1.22-.21.28-.07-.02-.15-.03-.23-.03-.11,0-.21.02-.3.06-.09.04-.18.09-.26.14-.08.05-.17.1-.26.16-.09.05-.18.09-.28.11-.01.04-.02.08-.03.12,0,.04,0,.07,0,.12-.03,0-.05,0-.06-.01-.01,0-.03-.01-.06-.01-.04,0-.06.02-.08.07s-.03.08-.04.11c-.1.04-.19.1-.26.18-.07.08-.13.16-.19.25-.06.09-.12.18-.18.26-.07.08-.15.14-.25.19-.04.17-.09.35-.13.51-.04.17-.09.34-.14.51.02.07.02.13.02.2,0,.09,0,.17-.02.24.03.04.05.09.08.16l.1.19c.03.07.07.13.1.18.04.05.07.1.1.12.06.04.15.08.28.12.13.04.24.09.33.18.01,0,.02,0,.04,0s.03,0,.04,0c.07,0,.14.02.21.05.08.03.12.05.15.05.31,0,.64-.02,1-.06.36-.04.69-.09,1-.15.01-.05.02-.1.02-.14,0-.07-.01-.14-.03-.21-.02-.07-.06-.13-.11-.18,0-.08,0-.16,0-.25s0-.16,0-.25c0-.14,0-.28-.02-.43s-.04-.29-.08-.42h-.02c-.07,0-.13.02-.19.05s-.12.05-.18.05c-.03,0-.06,0-.08-.02-.07.08-.14.13-.24.17-.09.04-.19.07-.29.1-.1.03-.21.06-.31.09-.1.03-.19.08-.27.14-.04-.02-.08-.02-.12-.02s-.07,0-.11,0c-.04,0-.07.01-.12.02-.11-.1-.17-.22-.17-.37,0-.08.01-.15.04-.22.02-.07.06-.14.1-.21.03-.02.06-.03.1-.03.04,0,.08,0,.11-.02s.07-.02.09-.04c.02-.02.04-.05.04-.09.02.02.03.02.04.02s.02,0,.03,0c.01,0,.02,0,.03,0s.02,0,.03.02c0,.01.01.02.01.03.23-.12.47-.23.72-.32.25-.09.49-.17.75-.24.25-.07.51-.14.76-.2.26-.06.51-.13.76-.21.04-.03.08-.06.12-.07.04-.02.08-.04.11-.07.04.02.08.03.14.03.08,0,.16-.01.25-.04.09-.03.16-.07.22-.11.02,0,.04,0,.06,0h.06c.11,0,.21-.02.31-.05.1-.03.19-.08.28-.13h.04c.17,0,.34-.02.5-.06.17-.04.34-.06.51-.06.22,0,.42.06.59.17v.1s0,.08,0,.12c0,.04.01.07.03.11Z"/>
  </g>
</svg>