<?xml version="1.0" encoding="UTF-8"?>
<svg id="Layer_1" data-name="Layer 1" xmlns="http://www.w3.org/2000/svg" viewBox="0 0 50 50">
  <defs>
    <style>
      .cls-1 {
        fill: #c2140f;
      }

      .cls-2 {
        fill: #f2f2f2;
      }
    </style>
  </defs>
  <circle class="cls-1" cx="25" cy="25" r="24"/>
  <g>
    <path class="cls-2" d="m23.54,15.98c0,.63-.08,1.22-.25,1.75-.17.53-.38,1.04-.64,1.53-.26.49-.54.97-.84,1.45s-.58.98-.85,1.52c-.07,0-.11.02-.14.05-.03.03-.05.07-.07.12-.02.05-.04.09-.07.13-.03.04-.08.06-.14.06-.1.24-.23.48-.38.69s-.32.43-.49.63c-.17.21-.34.41-.5.63-.16.21-.3.44-.43.68h-.17c-.6.87-1.28,1.65-2.03,2.34-.75.69-1.57,1.31-2.46,1.85-.02.07-.06.12-.1.17-.04.04-.06.11-.03.18-.12.07-.23.15-.31.26-.08.11-.16.21-.24.33-.08.11-.16.22-.24.33-.08.11-.19.19-.33.24-.17-.03-.33-.06-.48-.08-.15-.02-.3-.04-.46-.05-.07,0-.13,0-.2,0-.07,0-.13,0-.18,0-.12-.02-.23-.07-.31-.14-.08-.07-.2-.11-.36-.11-.08,0-.14,0-.18.02-.09-.16-.19-.31-.31-.48s-.18-.34-.18-.53c0-.14.02-.28.06-.4.04-.12.06-.25.06-.38,0-.27-.05-.53-.14-.78-.09-.26-.14-.52-.14-.78,0-.09.01-.18.03-.26.02-.08.03-.17.03-.26,0-.1-.04-.19-.13-.27.01-.06.03-.11.07-.17.03-.06.05-.12.05-.18.02-.09.03-.19.02-.29-.01-.11-.02-.2-.02-.29,0-.23.01-.47.03-.7s.07-.46.15-.68c-.01-.07-.03-.13-.05-.18l-.07-.17c.08-.23.13-.49.15-.78.02-.29.03-.58.03-.87v-.88c0-.29.02-.56.05-.82.02-.11.05-.22.08-.33.03-.11.04-.21.04-.31,0-.09-.02-.17-.05-.24-.03-.07-.08-.14-.13-.21.08-.02.12-.07.13-.14.01-.07.02-.14.02-.19,0-.16-.03-.33-.08-.52.04-.19.07-.38.08-.58.01-.19.02-.39.02-.58,0-.67-.04-1.32-.12-1.97-.08-.64-.14-1.29-.16-1.95h-.05c-.08,0-.14.02-.18.05-.04.03-.09.07-.13.11-.04.04-.09.07-.15.1-.06.03-.12.04-.2.02-.13.16-.29.29-.46.4-.17.11-.35.21-.54.3-.19.09-.38.17-.58.24-.2.07-.39.14-.57.21-.16-.06-.29-.15-.4-.27-.11-.13-.22-.26-.32-.39-.01-.04-.02-.09-.02-.13v-.13c0-.31.07-.55.22-.71s.3-.35.47-.58h.08c.06,0,.1.01.14.03s.09.03.14.03h.05c.32-.27.66-.48,1.03-.64s.74-.29,1.13-.38c.17-.17.34-.29.51-.38.17-.09.38-.13.61-.13.06,0,.12,0,.19,0,.07,0,.14.01.19.02.46-.21.89-.39,1.29-.54.41-.15.88-.23,1.41-.23.07,0,.11-.02.14-.05.03-.03.05-.07.07-.11.02-.04.04-.08.07-.11.02-.03.06-.05.12-.05,0,.02,0,.06.02.1s.04.07.08.07.09-.01.12-.04.09-.04.14-.04.09.04.12.12c.12-.08.24-.15.35-.22.11-.07.23-.12.37-.15.17.03.34.06.51.08s.35.03.53.03c.13,0,.27,0,.4-.02s.25-.07.35-.16c.04-.01.07.01.07.07.1.09.21.15.32.18.11.03.23.04.35.05.12,0,.24.01.37.02.12.01.23.05.33.12.09.02.16.06.22.11.06.05.13.09.22.13.07.02.16.04.28.05.12.01.2.03.26.07.06.02.09.06.09.11,0,.05.04.09.09.12.1.08.23.12.4.14.17.02.31.07.43.16.04.24.17.41.37.48.2.08.39.16.58.23.07.07.09.14.07.23.13.1.25.21.36.33.11.12.21.25.3.39.09.14.19.27.28.41.09.13.19.26.32.37-.01.1,0,.18.04.23s.05.14.03.25c.13.12.26.28.37.48-.07.1-.1.21-.1.33,0,.11.02.22.05.33.03.11.05.22.05.33v.38Zm-1.55-.37c0-.32-.06-.64-.18-.94-.12-.31-.23-.61-.32-.91-.14,0-.24-.05-.28-.16s-.11-.2-.21-.28c-.21-.04-.34-.21-.4-.48-.22-.09-.45-.19-.68-.3s-.43-.27-.58-.47c-.4-.12-.8-.25-1.21-.38s-.82-.19-1.24-.19c-.08,0-.15,0-.21,0-.06,0-.12,0-.17,0-.09,0-.18.02-.28.05-.1.03-.19.05-.28.05-.1,0-.2-.03-.3-.1-.22.12-.46.22-.73.28-.26.07-.53.12-.79.17-.27.05-.53.11-.78.18-.26.07-.48.18-.68.33-.07-.02-.13-.04-.19-.05-.06-.01-.12-.02-.18-.02-.1,0-.18.02-.23.07-.03.02-.05.05-.06.08,0,.03-.01.07-.02.11,0,.04-.02.07-.04.09s-.07.03-.13.02c0,.06,0,.11,0,.15,0,.04,0,.09,0,.15,0,.29.03.58.09.86s.09.57.09.86c0,.1,0,.2-.02.31-.01.11-.03.21-.07.31.06.13.09.28.09.43,0,.16,0,.31,0,.47s0,.31.02.46c.01.15.05.29.12.43-.03.17-.06.33-.07.5-.01.17-.02.33-.02.5,0,.39.02.77.06,1.15.04.38.06.76.06,1.15,0,.1,0,.21,0,.32,0,.11-.01.22-.03.33-.02.14-.06.28-.12.42s-.08.28-.08.43c0,.1,0,.2.02.31.01.11.02.21.02.33,0,.04,0,.09,0,.12,0,.04,0,.08,0,.12-.06.39-.1.78-.13,1.18-.03.4-.05.79-.05,1.18,0,.37.01.73.03,1.09s.06.73.1,1.09c-.04.08-.07.17-.07.27,0,.16.04.31.12.48.08.16.19.27.35.33.36-.13.69-.31.99-.52.31-.22.61-.44.93-.66.08-.06.19-.13.35-.23.16-.09.26-.16.32-.21.06-.04.1-.09.14-.14.04-.05.09-.1.14-.16l.73-.78c.42-.43.84-.87,1.26-1.32s.8-.92,1.16-1.42c.1-.16.2-.31.3-.46.1-.15.19-.31.28-.48.04-.06.08-.12.1-.19s.06-.14.12-.19c.03-.04.08-.09.12-.13.05-.04.09-.09.13-.13.09-.1.17-.2.26-.31.08-.11.17-.22.26-.34.24-.36.47-.71.68-1.08.21-.36.44-.72.7-1.08.02-.22.07-.43.13-.63.07-.19.13-.38.2-.57.07-.18.12-.38.17-.58s.06-.42.03-.67c.06-.08.1-.13.14-.17.04-.03.06-.1.06-.2v-.28Z"/>
    <g>
      <path class="cls-2" d="m27.69,24.85c0,.26-.03.49-.1.71s-.15.42-.26.62c-.11.2-.22.39-.34.58s-.24.4-.34.61c-.03,0-.05,0-.06.02-.01.01-.02.03-.03.05,0,.02-.02.04-.03.05s-.03.02-.06.02c-.04.1-.09.19-.15.28-.06.09-.13.17-.2.26-.07.08-.14.17-.2.25-.07.09-.12.18-.17.28h-.07c-.24.35-.51.66-.82.94-.3.28-.63.53-.99.75,0,.03-.02.05-.04.07-.02.02-.02.04-.01.07-.05.03-.09.06-.12.1-.03.04-.07.09-.1.13s-.06.09-.1.13-.08.08-.13.1c-.07-.01-.13-.02-.19-.03-.06,0-.12-.02-.18-.02-.03,0-.05,0-.08,0-.03,0-.05,0-.07,0-.05,0-.09-.03-.12-.06-.03-.03-.08-.04-.14-.04-.03,0-.06,0-.07,0-.04-.06-.08-.13-.12-.19-.05-.06-.07-.14-.07-.21,0-.06,0-.11.02-.16.02-.05.02-.1.02-.15,0-.11-.02-.21-.06-.32-.04-.1-.06-.21-.06-.32,0-.04,0-.07.01-.1s.01-.07.01-.1c0-.04-.02-.08-.05-.11,0-.02.01-.04.03-.07.01-.02.02-.05.02-.07,0-.04.01-.07,0-.12,0-.04,0-.08,0-.12,0-.09,0-.19.01-.28,0-.09.03-.19.06-.28,0-.03-.01-.05-.02-.07l-.03-.07c.03-.09.05-.2.06-.32,0-.12.01-.23.01-.35v-.36c0-.12,0-.23.02-.33,0-.04.02-.09.03-.13.01-.04.02-.08.02-.12,0-.04,0-.07-.02-.1-.01-.03-.03-.06-.05-.08.03,0,.05-.03.05-.06,0-.03,0-.05,0-.08,0-.06-.01-.13-.03-.21.02-.08.03-.15.03-.23,0-.08,0-.16,0-.23,0-.27-.02-.53-.05-.79s-.05-.52-.06-.79h-.02s-.06,0-.07.02c-.02.01-.04.03-.05.04-.02.02-.04.03-.06.04s-.05.01-.08.01c-.05.06-.12.12-.19.16-.07.04-.14.09-.22.12-.08.04-.15.07-.24.1s-.16.06-.23.08c-.06-.02-.12-.06-.16-.11-.04-.05-.09-.1-.13-.16,0-.02,0-.04,0-.05v-.05c0-.13.03-.22.09-.29s.12-.14.19-.23h.03s.04,0,.06.01c.02,0,.04.01.06.01h.02c.13-.11.27-.19.41-.26.15-.06.3-.12.45-.15.07-.07.14-.12.21-.15.07-.04.15-.05.25-.05.02,0,.05,0,.08,0,.03,0,.05,0,.08,0,.18-.08.36-.16.52-.22.16-.06.35-.09.57-.09.03,0,.05,0,.06-.02.01-.01.02-.03.03-.04,0-.02.02-.03.03-.04,0-.01.02-.02.05-.02,0,0,0,.02,0,.04,0,.02.02.03.03.03s.03,0,.05-.02c.02-.01.03-.02.06-.02s.04.02.05.05c.05-.03.1-.06.14-.09.04-.03.09-.05.15-.06.07.01.14.02.21.03.07,0,.14.01.21.01.05,0,.11,0,.16-.01.05,0,.1-.03.14-.06.02,0,.03,0,.03.03.04.04.08.06.13.07s.09.02.14.02c.05,0,.1,0,.15.01s.09.02.13.05c.04,0,.06.02.09.04s.05.04.09.05c.03,0,.06.02.11.02.05,0,.08.01.1.03.02,0,.03.02.04.04,0,.02.01.04.04.05.04.03.09.05.16.06.07,0,.12.03.17.06.02.1.07.16.15.2.08.03.16.06.24.09.03.03.04.06.03.09.05.04.1.09.14.13.04.05.08.1.12.16.04.06.07.11.11.17.04.05.08.1.13.15,0,.04,0,.07.02.09.02.02.02.06,0,.1.05.05.1.11.15.19-.03.04-.04.09-.04.13,0,.04,0,.09.02.13.01.04.02.09.02.13v.15Zm-.62-.15c0-.13-.02-.26-.07-.38-.05-.12-.09-.25-.13-.37-.06,0-.1-.02-.11-.06s-.04-.08-.08-.11c-.08-.02-.14-.08-.16-.2-.09-.04-.18-.08-.28-.12-.09-.04-.17-.11-.24-.19-.16-.05-.32-.1-.49-.15-.16-.05-.33-.08-.5-.08-.03,0-.06,0-.08,0-.02,0-.05,0-.07,0-.04,0-.07,0-.11.02-.04.01-.08.02-.11.02-.04,0-.08-.01-.12-.04-.09.05-.19.09-.29.11-.11.03-.21.05-.32.07s-.21.04-.32.07c-.1.03-.19.07-.28.13-.03,0-.05-.02-.08-.02-.02,0-.05,0-.07,0-.04,0-.07,0-.09.03-.01,0-.02.02-.02.03,0,.01,0,.03,0,.04,0,.02,0,.03-.02.04,0,0-.03.01-.05,0,0,.02,0,.04,0,.06s0,.04,0,.06c0,.12.01.23.04.35.02.11.04.23.04.35,0,.04,0,.08,0,.12s-.01.08-.03.12c.02.05.03.11.04.17,0,.06,0,.13,0,.19s0,.12,0,.19.02.12.05.17c-.01.07-.02.13-.03.2,0,.07,0,.13,0,.2,0,.16,0,.31.02.46s.02.31.02.46c0,.04,0,.08,0,.13,0,.04,0,.09,0,.13,0,.06-.02.11-.05.17s-.03.11-.03.17c0,.04,0,.08,0,.12s0,.09,0,.13c0,.02,0,.04,0,.05s0,.03,0,.05c-.02.16-.04.32-.05.48-.01.16-.02.32-.02.48,0,.15,0,.29.01.44,0,.15.02.29.04.44-.02.03-.03.07-.03.11,0,.06.02.13.05.19s.08.11.14.13c.14-.05.28-.12.4-.21.12-.09.25-.18.37-.27.03-.02.08-.05.14-.09s.11-.07.13-.08.04-.04.06-.06.03-.04.06-.06l.3-.32c.17-.17.34-.35.51-.53.17-.18.32-.37.47-.57.04-.06.08-.12.12-.18.04-.06.08-.12.11-.19.02-.02.03-.05.04-.08s.02-.05.05-.08c.01-.02.03-.04.05-.05.02-.02.04-.04.05-.05.04-.04.07-.08.1-.12.03-.04.07-.09.1-.14.1-.14.19-.29.28-.43.09-.15.18-.29.28-.43,0-.09.03-.17.05-.25.03-.08.05-.15.08-.23.03-.07.05-.15.07-.23s.02-.17.01-.27c.02-.03.04-.05.06-.07.02-.01.02-.04.02-.08v-.11Z"/>
      <path class="cls-2" d="m32.75,29.05c-.01.06-.04.11-.08.15s-.09.07-.15.09c-.06.02-.12.04-.18.04s-.12.01-.16.01c-.02,0-.04,0-.06,0s-.04,0-.06,0-.03.01-.03.03-.01.04-.03.05c-.02,0-.04-.02-.07-.02s-.04,0-.07,0c-.03,0-.06,0-.09,0-.03,0-.06,0-.08,0-.04,0-.06,0-.08-.01-.02,0-.03-.02-.04-.03s-.02-.02-.03-.04c-.01-.01-.03-.02-.05-.03-.03-.01-.06-.02-.08,0-.02,0-.05,0-.09-.04-.05-.04-.1-.1-.14-.16-.04-.06-.08-.13-.11-.21-.04-.07-.07-.14-.11-.22-.04-.07-.09-.13-.14-.19h-.05c-.08,0-.14.03-.17.1-.02-.01-.04-.03-.07-.05-.02-.02-.05-.04-.07-.05-.1.03-.21.06-.32.08-.11.02-.22.03-.34.03h-.09s-.06,0-.09-.01c-.04.02-.08.04-.12.06-.04.02-.08.04-.12.04-.03,0-.06,0-.09-.03-.03,0-.04.01-.04.03,0,.02-.01.03-.04.03h-.06c-.06,0-.12,0-.18,0s-.12,0-.19,0c-.08,0-.17-.01-.26-.03-.02.01-.05.02-.07.02-.02,0-.03.02-.04.04,0,.02-.02.04-.03.05,0,.02-.02.03-.04.04s-.04.01-.06,0c0,.05-.03.1-.07.13-.04.03-.05.08-.05.14-.05.03-.09.06-.12.1-.03.04-.06.08-.09.13-.03.04-.06.09-.1.13-.03.04-.08.07-.12.09-.02.03-.03.07-.02.13-.05.04-.11.08-.18.11-.07.03-.14.05-.2.05-.13,0-.22-.07-.27-.21,0-.04,0-.09.01-.14s.02-.1.03-.15c.01-.05.03-.09.06-.13.03-.04.06-.07.11-.08,0-.04-.01-.07-.04-.08s-.04-.04-.03-.08c.12-.06.23-.13.32-.23.09-.09.17-.19.25-.3.07-.11.15-.21.23-.32.08-.11.16-.2.26-.29v-.14c.13-.14.22-.31.26-.48.05,0,.08-.03.1-.07.02-.04.02-.08.02-.13.02,0,.04-.01.04-.03,0-.02.03-.03.06-.02.04-.11.09-.21.13-.3.05-.09.1-.18.15-.27s.09-.19.13-.29.07-.21.08-.33c.06,0,.1-.03.1-.09s.01-.11.02-.15c.07-.06.12-.14.15-.22.03-.09.06-.17.09-.27s.06-.18.09-.28c.03-.09.08-.17.14-.25v-.02s0-.04-.03-.04c-.02,0-.03-.02-.03-.04,0,0,0,0,0-.01.05-.02.09-.06.12-.11.03-.05.07-.09.12-.11.09.08.18.12.25.14.07.02.17.03.28.04.06.06.09.14.1.23,0,.09.02.17.04.26.04.14.08.28.12.42.04.14.08.28.1.42.01.09.04.17.07.24.04.08.06.15.07.24,0,.06,0,.13,0,.21,0,.08,0,.15.03.21l.05.11s.04.1.06.15c.02.05.03.11.04.16.04.13.07.28.1.43.03.15.08.29.14.42.02.04.06.08.1.09.05.02.1.03.16.04.06,0,.12,0,.17,0,.06,0,.1,0,.14,0h.07s.05,0,.08.01c.02.04.03.07.03.09,0,.05-.02.1-.05.13-.04.03-.05.07-.05.11,0,.02,0,.05.03.07-.02,0-.04,0-.08,0-.1,0-.2.02-.3.05.04.08.08.14.14.19.06.05.12.1.19.14.04-.04.09-.05.14-.05.05,0,.1.01.15.04.05.02.1.04.15.04.04,0,.07,0,.09-.02.04.04.06.08.09.12s.05.08.09.12Zm-2.1-1.08c0-.08-.02-.13-.04-.16-.02-.03-.04-.08-.05-.12-.02-.06-.03-.13-.04-.2,0-.07-.02-.14-.03-.21-.03-.15-.07-.3-.1-.46s-.09-.3-.14-.44c.02-.03.03-.05.03-.07v-.02s-.07-.1-.09-.16-.03-.13-.05-.19-.04-.13-.06-.18c-.02-.06-.06-.1-.12-.14-.01.03-.02.06-.02.09,0,.03,0,.06,0,.09,0,.03.01.06.01.09-.04.02-.08.06-.1.1-.02.05-.05.08-.1.11-.04.14-.09.28-.15.41s-.14.25-.21.38c-.07.13-.14.25-.21.38-.07.13-.12.26-.16.4-.06.04-.1.09-.12.15-.02.06-.03.13-.03.19.04.02.09.03.14.04.05,0,.1,0,.15,0s.1,0,.14.01.09.03.12.07c.06-.02.12-.03.19-.04.07,0,.13-.03.17-.06.09.03.19.05.29.05.05,0,.11,0,.16-.01.05,0,.1-.02.15-.03.04,0,.07.02.09.04.02.02.06.03.1.02.02-.02.04-.04.04-.06,0-.02.02-.04.03-.06Z"/>
      <path class="cls-2" d="m38.35,25.25h-.03s-.02,0-.03,0c0,0-.01.01-.01.02,0,.04.01.06.01.07,0,.05-.02.1-.05.14-.03.04-.05.07-.05.1,0,.01,0,.02.02.03.02,0,.03.02.04.02-.02.03-.04.06-.06.09-.02.03-.04.06-.06.08,0,.16.03.31.06.46.03.15.04.3.04.45,0,.08,0,.15-.02.23-.02.07-.03.15-.05.22-.02.07-.03.15-.05.22-.02.07-.02.15-.02.23-.06.12-.12.23-.19.33-.07.11-.12.22-.15.35-.1.06-.19.14-.27.23-.07.09-.15.18-.22.27-.16.05-.3.13-.43.21-.02,0-.04,0-.06,0h-.05c-.17,0-.32-.03-.44-.09-.12-.06-.23-.14-.31-.25-.09-.1-.16-.22-.23-.35-.06-.13-.12-.26-.17-.4-.1.08-.2.16-.28.26-.08.1-.17.19-.25.29-.03.04-.06.08-.1.12-.04.05-.08.08-.11.1-.02,0-.04.02-.06.02s-.04.01-.06.02c-.13.07-.22.17-.3.29-.09.04-.18.08-.26.12-.08.04-.16.09-.24.14-.08,0-.17.01-.25.02s-.17.01-.25.01c-.13,0-.21,0-.27-.02-.05-.02-.09-.04-.12-.06-.03-.02-.06-.05-.09-.09-.03-.04-.08-.07-.16-.11-.02-.06-.04-.12-.06-.17-.02-.06-.05-.11-.08-.16v-.09s0-.08,0-.11c0-.04,0-.07-.02-.1-.01-.03-.04-.05-.07-.06,0-.17.02-.33.06-.49.04-.16.07-.32.1-.49.02-.09.04-.19.04-.29,0-.02,0-.05,0-.07s0-.05.01-.08c0-.03.02-.05.05-.07.02-.02.04-.04.05-.08.02-.06.04-.13.04-.21s.01-.15.02-.22c.02-.13.05-.27.08-.4.03-.13.06-.27.1-.4,0-.02,0-.04,0-.06v-.07c0-.17.01-.34.04-.5.02-.16.04-.33.04-.5,0-.08,0-.17-.02-.26.02-.04.05-.09.08-.12s.07-.07.12-.09c.09.05.19.1.28.16.09.06.18.12.27.18v.16c0,.13,0,.27,0,.41s-.02.29-.04.44-.05.29-.08.43c-.03.14-.07.27-.13.38v.22c-.08.14-.13.29-.16.45-.03.16-.06.31-.09.47,0,.05-.03.11-.05.17-.03.07-.04.13-.04.17,0,.02,0,.04.01.07,0,.02.01.04.02.07-.04.08-.05.17-.06.26s-.01.18-.04.27c.04.06.07.12.1.18s.06.13.1.2h.07s.08,0,.13,0c.04,0,.09.01.13.01.02,0,.04,0,.07,0,.02,0,.04,0,.07,0,.03-.05.06-.09.11-.12.04-.03.09-.06.14-.08.05-.02.09-.05.13-.07s.08-.06.1-.11h.09s.03-.03.05-.05c.02-.02.05-.04.07-.07s.04-.04.06-.07.02-.04.02-.05c.05-.02.1-.05.14-.09s.08-.08.11-.12c.04-.04.07-.08.11-.12.04-.04.08-.07.13-.1,0,0,0-.02,0-.03,0-.04.01-.07.04-.09s.03-.06.02-.12h.02s.04,0,.05-.01c0-.01.02-.03.02-.05,0-.02.02-.03.03-.05.01-.02.03-.03.05-.03h0c0-.09.02-.17.05-.24.03-.07.05-.15.05-.23,0-.02,0-.04,0-.06,0-.02-.01-.04-.02-.06.04-.04.07-.1.08-.15.01-.06.02-.12.02-.18,0-.06,0-.13.01-.19,0-.06.02-.12.05-.18,0-.04-.02-.08-.05-.09l.08-.11s.06-.06.09-.09h.01s.09.01.13.04c.04.02.07.05.11.08.03.03.07.06.1.09.04.03.08.05.12.06v.15s.08.05.1.09c0,.12,0,.24-.01.36s0,.24,0,.36c0,.18,0,.36.01.53,0,.18.03.35.07.53.05.05.1.1.15.15.05.05.09.11.12.17h.08c.16,0,.28-.05.36-.15.08-.1.15-.22.18-.35.07-.03.12-.08.15-.13s.06-.12.08-.19c.02-.07.04-.14.05-.21.02-.07.04-.13.08-.18,0-.05,0-.11,0-.16v-.17c0-.26-.01-.52-.04-.78-.02-.26-.04-.51-.04-.77-.02-.04-.03-.08-.04-.13l-.02-.15s-.01-.1-.03-.14-.04-.07-.07-.09c.01-.04.02-.1.02-.16,0-.06,0-.12-.02-.18-.01-.06-.02-.12-.04-.17.04-.03.06-.06.09-.09s.06-.05.11-.05c.03,0,.06,0,.08.03.02.02.05.04.07.06s.05.04.07.06c.02.02.05.03.09.03,0,0,.02,0,.03,0,.01,0,.02,0,.04,0,.04.04.08.1.11.17.03.07.06.14.08.21.02.07.05.15.08.22.03.07.07.14.11.19,0,.01,0,.03,0,.04,0,.01,0,.02,0,.04,0,.04,0,.08.02.12.01.04.02.08.03.12Z"/>
      <path class="cls-2" d="m45.78,25.83s-.04.07-.08.08c-.04.02-.08.03-.12.04-.04,0-.08.02-.11.04-.03.02-.05.05-.06.1h-.01s-.03,0-.04-.01c0-.01-.01-.02-.02-.03,0-.01-.01-.02-.02-.03,0-.01-.02-.02-.03-.02-.05,0-.1,0-.14.01-.05,0-.09.01-.14.01-.07,0-.13,0-.18-.03-.03,0-.05.03-.05.06,0,.03-.02.05-.04.06-.02,0-.05.01-.08.01-.03,0-.06,0-.09,0l-.21.05c-.07.02-.14.03-.22.03-.04,0-.07,0-.09,0-.07.05-.14.09-.23.12-.09.02-.17.05-.27.07-.09.02-.18.05-.27.08s-.16.08-.23.15c-.04,0-.07-.01-.09-.01-.06,0-.11.01-.15.04-.04.02-.09.05-.14.07-.02,0-.04.01-.07.01s-.05,0-.07.01c-.03,0-.04.02-.05.04,0,.02-.02.04-.04.06,0,.16.02.32.05.48.03.16.05.32.05.48v.03c0,.08.03.15.07.21.04.06.06.13.06.2,0,.02,0,.05-.01.07.12.03.19.09.23.18s.07.19.09.3c.02.11.06.2.1.29.04.09.13.15.25.17,0,.04.02.09.02.14,0,.05,0,.09,0,.14,0,.06,0,.12-.02.18-.01.06-.04.12-.08.17-.07,0-.12,0-.15,0s-.08.01-.14.04c-.09-.05-.17-.12-.24-.19s-.13-.14-.19-.22c-.06-.08-.12-.16-.18-.24-.06-.08-.12-.16-.19-.24-.23.06-.47.1-.72.12-.24.02-.49.03-.73.03,0,0-.02.01-.04.01s-.03,0-.05,0-.03,0-.04.01c-.01,0-.01.02,0,.04-.03-.02-.07-.03-.1-.04-.04,0-.07,0-.1,0-.02,0-.04,0-.07,0-.02,0-.04,0-.07.02-.17-.03-.33-.08-.49-.13-.16-.06-.32-.1-.49-.14,0-.04,0-.06-.03-.08-.02-.02-.03-.04-.05-.07-.19-.12-.35-.26-.47-.42-.13-.17-.18-.37-.16-.6l-.05-.09c0-.07.02-.12.05-.15-.02-.03-.05-.06-.09-.09.04-.06.08-.13.11-.2.03-.07.05-.14.07-.21,0-.02,0-.04,0-.06s0-.04.01-.06c0-.03.02-.06.04-.09s.03-.06.04-.09c.07-.15.15-.3.24-.44s.2-.26.33-.37c0-.08.03-.14.07-.19.04-.05.08-.1.12-.14s.08-.09.13-.13c.04-.04.07-.1.1-.16.09-.08.18-.15.27-.22s.17-.16.23-.26c.08-.03.16-.06.23-.1s.13-.1.18-.16c.11,0,.21-.03.32-.06.11-.03.22-.05.33-.05.05,0,.11.01.18.03.07.02.12.06.16.1,0,0,0,.02,0,.03v.03s.02.02.02.02c0,0,.02,0,.04,0,0,.1-.01.2-.03.3-.02.1-.08.18-.17.23-.06-.02-.12-.03-.19-.03-.09,0-.17.02-.25.05-.07.03-.15.07-.22.11-.07.04-.14.08-.21.13-.07.04-.15.07-.23.09,0,.04-.02.07-.02.1s0,.06,0,.1c-.02,0-.04,0-.05,0s-.03-.01-.05-.01c-.03,0-.05.02-.06.05-.01.04-.02.06-.03.09-.09.04-.16.09-.21.15s-.11.13-.15.21c-.05.07-.1.14-.15.21-.05.07-.12.12-.2.15-.04.14-.07.28-.1.42-.03.14-.07.28-.12.42.01.05.02.11.02.17,0,.07,0,.14-.02.19.02.04.04.08.07.13l.08.15c.03.05.05.1.08.15s.06.08.08.1c.05.04.13.07.23.1s.2.08.28.14c0,0,.02,0,.03,0,.01,0,.02,0,.03,0,.05,0,.11.01.17.04.06.03.1.04.12.04.25,0,.52-.02.82-.05.3-.03.57-.07.82-.12,0-.04.01-.08.01-.11,0-.06,0-.12-.03-.17-.02-.06-.05-.1-.09-.14,0-.07,0-.13,0-.2,0-.07,0-.13,0-.2,0-.11,0-.23-.01-.36s-.03-.24-.07-.35h-.01c-.06,0-.11.01-.16.04-.05.03-.1.04-.14.04-.03,0-.05,0-.07-.02-.05.06-.12.11-.2.14s-.16.06-.24.08c-.08.02-.17.05-.25.08-.08.03-.16.07-.23.11-.04-.01-.07-.02-.1-.02s-.06,0-.09,0-.06,0-.1.01c-.09-.08-.14-.18-.14-.3,0-.06.01-.12.03-.19.02-.06.05-.12.08-.17.02-.01.05-.02.08-.02.03,0,.06,0,.09-.01.03,0,.06-.02.08-.03.02-.01.03-.04.04-.07.01.01.02.02.03.02,0,0,.02,0,.03,0,0,0,.02,0,.03,0,0,0,.02,0,.02.01,0,0,.01.02.01.03.19-.1.39-.19.59-.26s.41-.14.62-.19.42-.11.63-.17c.21-.05.42-.11.63-.17.03-.03.06-.05.1-.06.04-.01.07-.03.09-.06.03.02.07.03.11.03.06,0,.13-.01.21-.04.07-.02.14-.06.19-.09.02,0,.03,0,.05,0h.05c.09,0,.17-.01.25-.04.08-.03.16-.06.23-.11h.03c.14,0,.28-.02.41-.05.14-.03.28-.05.42-.05.18,0,.35.05.48.14v.08s0,.07,0,.1c0,.03,0,.06.02.09Z"/>
    </g>
  </g>
  <path class="cls-2" d="m43.02,31.63c-6.09-1.03-12.07-.63-18.17.2-2.18.3-10.12.35-10.84,3.44-.52,2.22,2.38,2.3,3.83,2.36,2.65.1,9.35-2.05,11.52-.37,2.85,2.21-5.37,4.91-7,5.67-1.03.48-.13,2.01.89,1.53,2.22-1.03,9.74-3.02,9.7-6.21-.03-2.29-3.07-2.73-4.79-2.93-2.57-.29-5.21.24-7.77.42-.6.04-3.34.65-3.14-.73.06-.4,3.34-.76,3.66-.81,7.16-1.21,14.43-2.07,21.64-.86,1.11.19,1.59-1.52.47-1.71h0Z"/>
</svg>