<?xml version="1.0" encoding="UTF-8"?>
<svg id="Layer_1" data-name="Layer 1" xmlns="http://www.w3.org/2000/svg" viewBox="0 0 1352 824.2">
  <defs>
    <style>
      .cls-1 {
        fill: #f2f2f2;
        stroke-width: 0px;
      }
    </style>
  </defs>
  <g>
    <path class="cls-1" d="M766.09,171.78c0,16.69-2.2,32.07-6.59,46.13-4.39,14.06-10.04,27.53-16.92,40.42-6.89,12.89-14.28,25.63-22.19,38.22-7.91,12.6-15.38,25.92-22.41,39.98-1.76,0-3.01.44-3.73,1.32-.73.88-1.32,1.98-1.76,3.29-.44,1.32-1.03,2.49-1.76,3.52-.73,1.03-1.98,1.54-3.73,1.54-2.64,6.45-6.01,12.52-10.1,18.23-4.11,5.71-8.42,11.28-12.96,16.7-4.54,5.42-8.94,10.91-13.18,16.48-4.25,5.57-7.98,11.57-11.2,18.01h-4.39c-15.82,22.85-33.61,43.35-53.38,61.51s-41.37,34.41-64.8,48.77c-.59,1.76-1.47,3.22-2.64,4.39-1.17,1.17-1.47,2.78-.88,4.83-3.23,1.76-5.93,4.02-8.13,6.81-2.2,2.78-4.32,5.64-6.37,8.57-2.05,2.92-4.17,5.78-6.37,8.57-2.2,2.78-5.05,4.9-8.57,6.37-4.39-.88-8.57-1.61-12.52-2.2-3.95-.59-7.98-1.03-12.08-1.32-1.76,0-3.51.07-5.27.22-1.76.14-3.37.07-4.83-.22-3.23-.59-5.93-1.83-8.13-3.73-2.2-1.91-5.35-2.86-9.45-2.86-2.05,0-3.67.14-4.83.44-2.35-4.11-5.05-8.28-8.13-12.52-3.08-4.25-4.61-8.86-4.61-13.84,0-3.81.51-7.33,1.54-10.54,1.02-3.23,1.54-6.59,1.54-10.1,0-7.03-1.25-13.92-3.73-20.65-2.49-6.74-3.73-13.62-3.73-20.65,0-2.34.29-4.61.88-6.81.58-2.2.88-4.46.88-6.81,0-2.64-1.17-4.98-3.51-7.03.29-1.46.88-2.92,1.76-4.39.88-1.46,1.32-3.08,1.32-4.83.58-2.34.73-4.9.44-7.69-.3-2.78-.44-5.34-.44-7.69,0-6.15.29-12.3.88-18.45.58-6.15,1.9-12.15,3.95-18.01-.29-1.76-.73-3.36-1.32-4.83l-1.76-4.39c2.05-6.15,3.36-13.03,3.95-20.65.58-7.61.88-15.23.88-22.85v-23.29c0-7.61.44-14.79,1.32-21.53.58-2.92,1.24-5.78,1.98-8.57.73-2.78,1.1-5.49,1.1-8.13,0-2.34-.44-4.46-1.32-6.37-.88-1.9-2.05-3.73-3.51-5.49,2.05-.58,3.22-1.83,3.51-3.73.29-1.9.44-3.58.44-5.05,0-4.1-.73-8.64-2.2-13.62,1.17-4.98,1.9-10.03,2.2-15.16.29-5.12.44-10.17.44-15.16,0-17.57-1.1-34.85-3.29-51.84-2.2-16.98-3.59-34.12-4.17-51.4h-1.32c-2.05,0-3.67.44-4.83,1.32-1.17.88-2.35,1.83-3.52,2.86-1.17,1.03-2.49,1.91-3.95,2.64-1.47.73-3.23.95-5.27.66-3.51,4.1-7.54,7.62-12.08,10.54-4.54,2.93-9.3,5.57-14.28,7.91-4.98,2.35-10.1,4.47-15.38,6.37-5.27,1.91-10.25,3.73-14.94,5.49-4.1-1.46-7.61-3.88-10.54-7.25-2.92-3.36-5.71-6.81-8.35-10.32-.29-1.17-.44-2.34-.44-3.51v-3.51c0-8.2,1.91-14.42,5.71-18.67,3.81-4.24,7.91-9.29,12.3-15.16h2.2c1.47,0,2.71.29,3.73.88,1.03.59,2.27.88,3.73.88h1.32c8.49-7.03,17.5-12.67,27.02-16.91,9.51-4.24,19.4-7.54,29.66-9.89,4.39-4.39,8.86-7.76,13.4-10.1,4.54-2.34,9.89-3.51,16.04-3.51,1.46,0,3.14.08,5.05.22,1.9.15,3.58.37,5.05.66,12.01-5.56,23.35-10.32,34.05-14.28,10.69-3.95,23.07-5.93,37.12-5.93,1.76,0,3-.44,3.73-1.32.73-.88,1.39-1.83,1.98-2.86.58-1.02,1.17-1.98,1.76-2.86.58-.88,1.61-1.32,3.08-1.32,0,.59.14,1.47.44,2.64.29,1.17,1.02,1.76,2.2,1.76s2.27-.36,3.29-1.1c1.02-.73,2.27-1.1,3.73-1.1s2.48,1.03,3.08,3.08c3.22-2.05,6.29-3.95,9.23-5.71,2.92-1.76,6.15-3.08,9.67-3.95,4.39.88,8.86,1.61,13.4,2.2,4.54.59,9.15.88,13.84.88,3.52,0,7.03-.22,10.54-.66,3.51-.44,6.59-1.83,9.23-4.17,1.17-.29,1.76.3,1.76,1.76,2.64,2.35,5.42,3.89,8.35,4.61,2.92.73,6,1.17,9.23,1.32,3.22.15,6.44.37,9.67.66,3.22.3,6.15,1.32,8.79,3.08,2.34.59,4.24,1.54,5.71,2.86,1.46,1.32,3.36,2.42,5.71,3.29,1.76.59,4.17,1.03,7.25,1.32,3.08.29,5.34.88,6.81,1.76,1.46.59,2.27,1.54,2.42,2.86.14,1.32.95,2.42,2.42,3.3,2.64,2.05,6.15,3.29,10.54,3.73,4.39.44,8.2,1.83,11.42,4.17,1.17,6.45,4.39,10.7,9.67,12.74,5.27,2.05,10.39,4.1,15.38,6.15,1.76,1.76,2.34,3.81,1.76,6.15,3.52,2.64,6.66,5.57,9.45,8.79,2.78,3.23,5.42,6.67,7.91,10.32,2.49,3.67,4.9,7.25,7.25,10.76,2.34,3.51,5.12,6.74,8.35,9.67-.29,2.64.07,4.69,1.1,6.15,1.02,1.47,1.24,3.67.66,6.59,3.52,3.23,6.73,7.47,9.67,12.74-1.76,2.64-2.64,5.57-2.64,8.79,0,2.93.44,5.86,1.32,8.79.88,2.93,1.32,5.86,1.32,8.79v10.1ZM725.23,162.12c0-8.49-1.61-16.76-4.83-24.82-3.23-8.05-6.01-16.04-8.35-23.94-3.81,0-6.23-1.39-7.25-4.17-1.03-2.78-2.86-5.2-5.49-7.25-5.57-1.17-9.08-5.42-10.54-12.74-5.86-2.34-11.86-4.98-18.01-7.91-6.15-2.92-11.28-7.03-15.38-12.3-10.54-3.22-21.16-6.51-31.85-9.89-10.69-3.36-21.6-5.05-32.73-5.05-2.05,0-3.89.08-5.49.22-1.61.15-3.15.22-4.61.22-2.35,0-4.83.44-7.47,1.32-2.64.88-5.13,1.32-7.47,1.32-2.64,0-5.27-.88-7.91-2.64-5.86,3.23-12.23,5.71-19.11,7.47-6.89,1.76-13.84,3.29-20.87,4.61-7.03,1.32-13.91,2.93-20.65,4.83-6.74,1.91-12.74,4.76-18.01,8.57-1.76-.58-3.45-1.02-5.05-1.32-1.61-.29-3.15-.44-4.61-.44-2.64,0-4.69.59-6.15,1.76-.88.59-1.39,1.32-1.54,2.2-.15.88-.3,1.83-.44,2.86-.15,1.03-.52,1.83-1.1,2.42s-1.76.73-3.51.44c0,1.47-.08,2.79-.22,3.95-.15,1.17-.22,2.49-.22,3.95,0,7.62.8,15.16,2.42,22.63,1.61,7.47,2.42,15.01,2.42,22.63,0,2.64-.15,5.35-.44,8.13-.29,2.79-.88,5.49-1.76,8.13,1.46,3.51,2.27,7.32,2.42,11.42.14,4.1.22,8.2.22,12.3s.14,8.13.44,12.08c.29,3.95,1.32,7.69,3.08,11.2-.88,4.39-1.47,8.79-1.76,13.18-.3,4.39-.44,8.79-.44,13.18,0,10.26.51,20.36,1.54,30.31,1.02,9.96,1.54,20.07,1.54,30.31,0,2.64-.08,5.42-.22,8.35-.15,2.93-.37,5.86-.66,8.79-.59,3.81-1.61,7.47-3.08,10.98-1.47,3.51-2.2,7.32-2.2,11.42,0,2.64.14,5.35.44,8.13.29,2.79.44,5.64.44,8.57,0,1.17-.08,2.27-.22,3.29-.15,1.03-.22,2.13-.22,3.3-1.47,10.26-2.64,20.65-3.51,31.19-.88,10.54-1.32,20.94-1.32,31.19,0,9.67.29,19.26.88,28.78.58,9.52,1.46,19.11,2.64,28.78-1.17,2.05-1.76,4.39-1.76,7.03,0,4.1,1.02,8.27,3.08,12.52,2.05,4.24,5.12,7.1,9.23,8.57,9.37-3.51,18.08-8.13,26.14-13.84,8.05-5.71,16.18-11.49,24.38-17.35,2.05-1.46,5.12-3.44,9.23-5.93,4.1-2.48,6.88-4.32,8.35-5.49,1.46-1.17,2.7-2.42,3.73-3.73,1.02-1.32,2.27-2.71,3.73-4.17l19.33-20.65c11.13-11.42,22.19-22.99,33.17-34.71,10.98-11.71,21.16-24.16,30.53-37.34,2.64-4.1,5.27-8.13,7.91-12.08,2.64-3.95,5.12-8.13,7.47-12.52,1.17-1.46,2.05-3.14,2.64-5.05.58-1.9,1.61-3.58,3.08-5.05.88-1.17,1.98-2.34,3.29-3.51,1.32-1.17,2.42-2.34,3.3-3.51,2.34-2.64,4.61-5.34,6.81-8.13,2.2-2.78,4.46-5.78,6.81-9.01,6.44-9.37,12.45-18.82,18.01-28.34,5.56-9.51,11.71-18.96,18.45-28.34.58-5.86,1.76-11.35,3.51-16.48,1.76-5.12,3.51-10.1,5.27-14.94,1.76-4.83,3.22-9.89,4.39-15.16,1.17-5.27,1.46-11.13.88-17.57,1.46-2.05,2.71-3.51,3.73-4.39,1.02-.88,1.54-2.64,1.54-5.27v-7.47Z"/>
    <g>
      <path class="cls-1" d="M875.37,405.46c0,6.73-.88,12.93-2.66,18.6s-4.05,11.1-6.82,16.29c-2.78,5.2-5.76,10.33-8.94,15.41-3.19,5.08-6.2,10.45-9.03,16.12-.71,0-1.21.18-1.51.53-.3.35-.53.8-.71,1.33-.18.53-.41,1-.71,1.42-.29.42-.8.62-1.5.62-1.06,2.6-2.42,5.05-4.07,7.35-1.65,2.3-3.4,4.55-5.22,6.73-1.83,2.19-3.6,4.4-5.31,6.64-1.71,2.24-3.22,4.67-4.52,7.26h-1.77c-6.38,9.21-13.55,17.48-21.52,24.8s-16.68,13.87-26.12,19.66c-.24.71-.59,1.3-1.06,1.77-.47.47-.59,1.12-.35,1.95-1.3.71-2.39,1.62-3.28,2.75-.89,1.12-1.74,2.27-2.57,3.45-.83,1.18-1.68,2.33-2.57,3.45-.89,1.12-2.04,1.98-3.45,2.57-1.77-.35-3.45-.65-5.05-.88-1.59-.24-3.22-.42-4.87-.53-.71,0-1.42.03-2.13.09-.71.06-1.36.03-1.95-.09-1.3-.24-2.39-.74-3.28-1.5-.89-.77-2.16-1.15-3.81-1.15-.83,0-1.48.06-1.95.18-.95-1.65-2.04-3.34-3.28-5.05-1.24-1.71-1.86-3.57-1.86-5.58,0-1.54.21-2.95.62-4.25.41-1.3.62-2.66.62-4.07,0-2.83-.5-5.61-1.51-8.33-1-2.72-1.51-5.49-1.51-8.32,0-.94.12-1.86.35-2.75.24-.88.35-1.8.35-2.75,0-1.06-.47-2.01-1.42-2.83.12-.59.35-1.18.71-1.77.35-.59.53-1.24.53-1.95.24-.94.29-1.98.18-3.1-.12-1.12-.18-2.15-.18-3.1,0-2.48.12-4.96.35-7.44.23-2.48.77-4.9,1.59-7.26-.12-.71-.3-1.36-.53-1.95l-.71-1.77c.82-2.48,1.36-5.25,1.59-8.32.24-3.07.35-6.14.35-9.21v-9.39c0-3.07.18-5.96.53-8.68.24-1.18.5-2.33.8-3.45.29-1.12.44-2.21.44-3.28,0-.94-.18-1.8-.53-2.57-.35-.77-.83-1.51-1.42-2.21.82-.23,1.3-.74,1.42-1.5.12-.77.18-1.45.18-2.04,0-1.65-.3-3.48-.89-5.49.47-2.01.77-4.04.89-6.11.12-2.06.18-4.1.18-6.11,0-7.08-.44-14.05-1.33-20.9-.89-6.85-1.45-13.75-1.68-20.72h-.53c-.83,0-1.48.18-1.95.53-.47.35-.95.74-1.42,1.15-.47.42-1,.77-1.59,1.06-.59.3-1.3.38-2.13.27-1.42,1.66-3.04,3.07-4.87,4.25-1.83,1.18-3.75,2.24-5.76,3.19-2.01.95-4.07,1.8-6.2,2.57-2.13.77-4.13,1.51-6.02,2.21-1.65-.59-3.07-1.56-4.25-2.92-1.18-1.36-2.3-2.75-3.37-4.16-.12-.47-.18-.94-.18-1.42v-1.42c0-3.3.77-5.81,2.3-7.53,1.54-1.71,3.19-3.75,4.96-6.11h.89c.59,0,1.09.12,1.51.35.42.24.92.35,1.51.35h.53c3.42-2.83,7.05-5.11,10.89-6.82,3.84-1.71,7.82-3.04,11.96-3.98,1.77-1.77,3.57-3.13,5.4-4.07,1.83-.94,3.99-1.42,6.46-1.42.59,0,1.27.03,2.04.09.77.06,1.44.15,2.04.27,4.84-2.24,9.42-4.16,13.73-5.76,4.31-1.59,9.3-2.39,14.97-2.39.71,0,1.21-.18,1.51-.53.29-.35.56-.74.8-1.15.24-.41.47-.8.71-1.15.24-.35.65-.53,1.24-.53,0,.24.06.59.18,1.06.12.47.41.71.89.71s.91-.15,1.33-.44c.41-.29.91-.44,1.51-.44s1,.42,1.24,1.24c1.3-.82,2.54-1.59,3.72-2.3,1.18-.71,2.48-1.24,3.9-1.59,1.77.35,3.57.65,5.4.89,1.83.24,3.69.35,5.58.35,1.42,0,2.83-.09,4.25-.27,1.42-.18,2.66-.74,3.72-1.68.47-.12.71.12.71.71,1.06.95,2.18,1.57,3.36,1.86,1.18.3,2.42.47,3.72.53,1.3.06,2.6.15,3.9.27,1.3.12,2.48.53,3.54,1.24.95.24,1.71.62,2.3,1.15.59.53,1.36.97,2.3,1.33.71.24,1.68.42,2.92.53,1.24.12,2.15.35,2.74.71.59.24.91.62.97,1.15.06.53.38.97.97,1.33,1.06.83,2.48,1.33,4.25,1.51s3.3.74,4.61,1.68c.47,2.6,1.77,4.31,3.9,5.14,2.12.83,4.19,1.65,6.2,2.48.71.71.94,1.54.71,2.48,1.42,1.06,2.68,2.24,3.81,3.54,1.12,1.3,2.18,2.69,3.19,4.16,1,1.48,1.98,2.92,2.92,4.34.94,1.42,2.06,2.72,3.37,3.9-.12,1.06.03,1.89.44,2.48.41.59.5,1.48.27,2.66,1.42,1.3,2.71,3.01,3.9,5.14-.71,1.06-1.06,2.24-1.06,3.54,0,1.18.18,2.36.53,3.54.35,1.18.53,2.36.53,3.54v4.07ZM858.9,401.56c0-3.42-.65-6.76-1.95-10.01-1.3-3.25-2.42-6.46-3.37-9.65-1.54,0-2.51-.56-2.92-1.68-.41-1.12-1.15-2.1-2.21-2.92-2.24-.47-3.66-2.18-4.25-5.14-2.36-.94-4.78-2.01-7.26-3.19-2.48-1.18-4.55-2.83-6.2-4.96-4.25-1.3-8.53-2.63-12.84-3.98-4.31-1.36-8.71-2.04-13.2-2.04-.83,0-1.57.03-2.21.09-.65.06-1.27.09-1.86.09-.95,0-1.95.18-3.01.53-1.06.35-2.07.53-3.01.53-1.06,0-2.13-.35-3.19-1.06-2.36,1.3-4.93,2.3-7.71,3.01-2.78.71-5.58,1.33-8.41,1.86s-5.61,1.18-8.32,1.95c-2.72.77-5.14,1.92-7.26,3.45-.71-.24-1.39-.41-2.04-.53-.65-.12-1.27-.18-1.86-.18-1.06,0-1.89.24-2.48.71-.35.24-.56.53-.62.89-.06.35-.12.74-.18,1.15-.06.42-.21.74-.44.97-.24.24-.71.3-1.42.18,0,.59-.03,1.12-.09,1.59-.06.47-.09,1-.09,1.59,0,3.07.32,6.11.97,9.12.65,3.01.97,6.05.97,9.12,0,1.06-.06,2.16-.18,3.28-.12,1.12-.35,2.21-.71,3.28.59,1.42.91,2.95.97,4.6.06,1.66.09,3.31.09,4.96s.06,3.28.18,4.87c.12,1.59.53,3.1,1.24,4.52-.35,1.77-.59,3.54-.71,5.31-.12,1.77-.18,3.54-.18,5.31,0,4.13.2,8.21.62,12.22.41,4.02.62,8.09.62,12.22,0,1.06-.03,2.19-.09,3.37-.06,1.18-.15,2.36-.27,3.54-.24,1.54-.65,3.01-1.24,4.43-.59,1.42-.89,2.95-.89,4.6,0,1.06.06,2.16.18,3.28.12,1.12.18,2.27.18,3.45,0,.47-.03.92-.09,1.33-.06.42-.09.86-.09,1.33-.59,4.13-1.06,8.33-1.42,12.58-.35,4.25-.53,8.44-.53,12.58,0,3.9.12,7.77.35,11.6.24,3.84.59,7.7,1.06,11.6-.47.83-.71,1.77-.71,2.83,0,1.65.41,3.33,1.24,5.05.82,1.71,2.06,2.86,3.72,3.45,3.78-1.42,7.29-3.28,10.54-5.58,3.25-2.3,6.52-4.63,9.83-7,.82-.59,2.06-1.39,3.72-2.39,1.65-1,2.77-1.74,3.37-2.21.59-.47,1.09-.97,1.51-1.51.41-.53.91-1.09,1.51-1.68l7.79-8.32c4.49-4.61,8.94-9.27,13.37-13.99,4.43-4.72,8.53-9.74,12.31-15.06,1.06-1.65,2.12-3.28,3.19-4.87,1.06-1.59,2.06-3.28,3.01-5.05.47-.59.82-1.27,1.06-2.04.23-.77.65-1.45,1.24-2.04.35-.47.8-.94,1.33-1.42.53-.47.97-.94,1.33-1.42.94-1.06,1.86-2.15,2.75-3.28.88-1.12,1.8-2.33,2.74-3.63,2.6-3.78,5.02-7.59,7.26-11.42,2.24-3.84,4.72-7.64,7.44-11.42.24-2.36.71-4.58,1.42-6.64.71-2.06,1.42-4.07,2.12-6.02s1.3-3.99,1.77-6.11c.47-2.12.59-4.49.35-7.08.59-.82,1.09-1.42,1.51-1.77.41-.35.62-1.06.62-2.13v-3.01Z"/>
      <path class="cls-1" d="M1008.57,516.16c-.35,1.66-1.09,2.98-2.21,3.99-1.12,1-2.45,1.8-3.98,2.39-1.54.59-3.1.97-4.69,1.15-1.59.18-3.04.27-4.34.27-.59,0-1.15-.03-1.68-.09-.53-.06-1.09-.09-1.68-.09s-.89.3-.89.89-.3,1-.89,1.24c-.59-.24-1.18-.41-1.77-.53-.59-.12-1.18-.18-1.77-.18-.83,0-1.62.06-2.39.18-.77.12-1.51.18-2.21.18-.95,0-1.62-.12-2.04-.35-.42-.24-.77-.5-1.06-.8-.3-.29-.59-.62-.89-.97-.3-.35-.74-.65-1.33-.89-.83-.35-1.51-.41-2.04-.18-.53.24-1.33-.12-2.39-1.06-1.42-1.18-2.63-2.63-3.63-4.34-1-1.71-1.98-3.51-2.92-5.4-.95-1.89-1.95-3.78-3.01-5.67-1.06-1.89-2.3-3.54-3.72-4.96h-1.42c-2.13,0-3.6.89-4.43,2.66-.59-.35-1.18-.8-1.77-1.33-.59-.53-1.24-.97-1.95-1.33-2.72.83-5.55,1.54-8.5,2.13-2.95.59-5.91.88-8.86.88h-2.48c-.71,0-1.48-.12-2.3-.35-1.18.47-2.24,1.04-3.19,1.68-.95.65-2.01.97-3.19.97-.71,0-1.54-.24-2.48-.71-.71,0-1.04.3-.97.89.06.59-.33.88-1.15.88h-1.59c-1.66,0-3.28.06-4.87.18-1.59.12-3.22.18-4.87.18-2.25,0-4.55-.29-6.91-.89-.59.35-1.24.53-1.95.53-.47.24-.83.62-1.06,1.15-.24.53-.47,1-.71,1.42-.24.42-.56.77-.97,1.06-.42.3-.97.38-1.68.27-.24,1.42-.83,2.54-1.77,3.37-.95.83-1.42,2.07-1.42,3.72-1.3.71-2.36,1.59-3.19,2.66-.83,1.06-1.66,2.19-2.48,3.37-.83,1.18-1.68,2.3-2.57,3.37-.88,1.06-1.98,1.89-3.28,2.48-.59.71-.77,1.83-.53,3.37-1.3,1.06-2.89,2.01-4.78,2.83-1.89.83-3.66,1.24-5.31,1.24-3.42,0-5.78-1.83-7.08-5.49,0-1.18.09-2.45.27-3.81.18-1.36.44-2.66.8-3.9.35-1.24.89-2.36,1.59-3.37.71-1,1.71-1.74,3.01-2.21,0-1.06-.35-1.8-1.06-2.21-.71-.41-1-1.15-.89-2.21,3.19-1.53,5.96-3.54,8.32-6.02,2.36-2.48,4.52-5.11,6.46-7.88,1.95-2.77,3.92-5.58,5.93-8.41,2.01-2.83,4.25-5.37,6.73-7.62v-3.72c3.54-3.78,5.85-8.03,6.91-12.75,1.3-.24,2.15-.82,2.57-1.77.41-.94.62-2.06.62-3.37.59,0,.97-.27,1.15-.8.18-.53.68-.68,1.51-.44,1.06-2.83,2.24-5.43,3.54-7.79,1.3-2.36,2.6-4.75,3.9-7.17,1.3-2.42,2.45-4.93,3.45-7.53,1-2.6,1.74-5.49,2.21-8.68,1.65-.12,2.57-.91,2.75-2.39.18-1.47.38-2.8.62-3.99,1.77-1.65,3.1-3.6,3.99-5.84.89-2.24,1.68-4.57,2.39-7,.71-2.42,1.5-4.84,2.39-7.26.89-2.42,2.15-4.57,3.81-6.46v-.53c0-.59-.24-.97-.71-1.15-.47-.18-.71-.56-.71-1.15.12-.12.18-.23.18-.35,1.42-.59,2.48-1.56,3.19-2.92.71-1.36,1.77-2.33,3.19-2.92,2.48,2.01,4.66,3.22,6.55,3.63,1.89.42,4.37.74,7.44.97,1.53,1.65,2.39,3.63,2.57,5.93.18,2.3.56,4.58,1.15,6.82.94,3.78,1.98,7.47,3.1,11.07,1.12,3.6,1.98,7.29,2.57,11.07.35,2.25,1,4.37,1.95,6.38.94,2.01,1.59,4.07,1.95,6.2.23,1.65.23,3.51,0,5.58-.24,2.07,0,3.87.71,5.4l1.24,2.83c.59,1.3,1.09,2.66,1.5,4.07.41,1.42.8,2.83,1.15,4.25.94,3.54,1.8,7.35,2.57,11.42.77,4.07,1.98,7.77,3.63,11.07.59,1.18,1.51,2.01,2.75,2.48,1.24.47,2.63.8,4.16.97,1.53.18,3.04.24,4.52.18,1.47-.06,2.75-.09,3.81-.09h1.77c.71,0,1.42.12,2.12.35.47.95.71,1.77.71,2.48,0,1.42-.47,2.54-1.42,3.37-.95.83-1.42,1.77-1.42,2.83,0,.59.24,1.24.71,1.95-.47-.12-1.18-.18-2.12-.18-2.72,0-5.38.47-7.97,1.42.94,2.01,2.21,3.69,3.81,5.05,1.59,1.36,3.28,2.63,5.05,3.81,1.18-.94,2.42-1.42,3.72-1.42,1.42,0,2.75.33,3.99.97,1.24.65,2.57.97,3.99.97,1.06,0,1.83-.18,2.3-.53.94,1.06,1.71,2.16,2.3,3.28.59,1.12,1.36,2.16,2.3,3.1ZM953.13,487.82c-.24-2.01-.62-3.45-1.15-4.34s-.97-1.98-1.33-3.28c-.47-1.65-.8-3.42-.97-5.31-.18-1.89-.44-3.72-.8-5.49-.83-4.01-1.74-8.03-2.75-12.04-1-4.01-2.27-7.91-3.81-11.69.47-.71.71-1.36.71-1.95v-.53c-1.06-1.18-1.83-2.63-2.3-4.34-.47-1.71-.92-3.42-1.33-5.14-.42-1.71-.95-3.3-1.59-4.78-.65-1.48-1.68-2.68-3.1-3.63-.35.71-.53,1.54-.53,2.48,0,.83.09,1.59.27,2.3.18.71.27,1.48.27,2.3-1.18.59-2.04,1.5-2.57,2.75-.53,1.24-1.39,2.21-2.57,2.92-.95,3.78-2.3,7.35-4.07,10.71-1.77,3.37-3.63,6.7-5.58,10.01-1.95,3.31-3.81,6.64-5.58,10.01-1.77,3.37-3.19,6.88-4.25,10.54-1.54,1.06-2.57,2.42-3.1,4.07-.53,1.66-.8,3.31-.8,4.96,1.06.59,2.27.92,3.63.97,1.36.06,2.68.09,3.99.09s2.54.12,3.72.35c1.18.24,2.24.83,3.19,1.77,1.53-.47,3.22-.8,5.05-.97,1.83-.18,3.33-.68,4.52-1.51,2.36.83,4.9,1.24,7.62,1.24,1.42,0,2.8-.12,4.16-.35,1.36-.24,2.68-.53,3.99-.89,1.06.24,1.89.62,2.48,1.15.59.53,1.47.74,2.66.62.59-.47.94-.97,1.06-1.51.12-.53.41-1.03.89-1.5Z"/>
      <path class="cls-1" d="M1156.11,415.91h-.71c-.24-.12-.47-.12-.71,0-.24.12-.35.3-.35.53.24.95.35,1.59.35,1.95,0,1.42-.44,2.63-1.33,3.63-.89,1-1.33,1.86-1.33,2.57,0,.35.21.65.62.89.41.24.74.42.97.53-.59.71-1.12,1.48-1.59,2.3-.47.83-1,1.54-1.59,2.13.24,4.13.74,8.18,1.5,12.13.77,3.96,1.15,7.94,1.15,11.96,0,2.01-.21,3.99-.62,5.93-.42,1.95-.86,3.9-1.33,5.84-.47,1.95-.92,3.9-1.33,5.84-.42,1.95-.62,3.93-.62,5.93-1.54,3.07-3.19,6-4.96,8.77-1.77,2.78-3.07,5.82-3.9,9.12-2.72,1.65-5.05,3.69-7,6.11-1.95,2.42-3.87,4.81-5.76,7.17-4.13,1.42-7.91,3.31-11.34,5.67-.59.12-1.12.18-1.59.18h-1.42c-4.49,0-8.33-.83-11.51-2.48-3.19-1.65-5.93-3.81-8.24-6.46-2.3-2.66-4.28-5.7-5.93-9.12-1.66-3.42-3.19-6.97-4.61-10.63-2.72,2.01-5.17,4.28-7.35,6.82-2.19,2.54-4.4,5.05-6.64,7.53-.71.95-1.57,2.04-2.57,3.28-1,1.24-1.98,2.16-2.92,2.75-.47.24-.97.44-1.51.62s-1.09.38-1.68.62c-3.31,1.89-5.91,4.43-7.79,7.62-2.36.95-4.64,2.01-6.82,3.19-2.19,1.18-4.28,2.42-6.29,3.72-2.24.12-4.46.27-6.64.44-2.19.18-4.34.27-6.46.27-3.31,0-5.64-.21-7-.62-1.36-.41-2.42-.94-3.19-1.59-.77-.65-1.54-1.45-2.3-2.39-.77-.94-2.21-1.95-4.34-3.01-.59-1.53-1.15-3.07-1.68-4.61-.53-1.53-1.27-2.95-2.21-4.25v-2.48c0-1.06-.03-2.06-.09-3.01-.06-.94-.27-1.8-.62-2.57-.35-.77-.94-1.27-1.77-1.51,0-4.37.53-8.68,1.59-12.93,1.06-4.25,1.95-8.56,2.66-12.93.59-2.48.94-5.02,1.06-7.62.12-.59.18-1.24.18-1.95s.12-1.42.35-2.12c.23-.71.65-1.3,1.24-1.77.59-.47,1-1.18,1.24-2.12.59-1.65.94-3.48,1.06-5.49.12-2.01.29-3.9.53-5.67.59-3.54,1.27-7.08,2.04-10.63.77-3.54,1.68-7.02,2.75-10.45-.12-.59-.18-1.12-.18-1.59v-1.77c0-4.49.32-8.86.97-13.11.65-4.25.97-8.62.97-13.11,0-2.12-.18-4.37-.53-6.73.59-1.18,1.27-2.27,2.04-3.28.77-1,1.8-1.8,3.1-2.39,2.48,1.3,4.93,2.69,7.35,4.16,2.42,1.48,4.75,3.1,7,4.87v4.25c0,3.43-.09,7.06-.27,10.89-.18,3.84-.53,7.7-1.06,11.6s-1.21,7.68-2.04,11.34c-.83,3.66-1.95,7.03-3.37,10.1v5.67c-2.12,3.78-3.54,7.74-4.25,11.87-.71,4.13-1.54,8.27-2.48,12.4-.24,1.3-.71,2.83-1.42,4.6-.71,1.77-1.06,3.31-1.06,4.61,0,.59.09,1.18.27,1.77.18.59.32,1.18.44,1.77-.95,2.13-1.45,4.4-1.51,6.82-.06,2.42-.38,4.81-.97,7.17.94,1.54,1.8,3.16,2.57,4.87.77,1.71,1.62,3.45,2.57,5.23l1.77-.18c1.06,0,2.18.09,3.37.27,1.18.18,2.3.27,3.37.27.59,0,1.18-.03,1.77-.09.59-.06,1.18-.15,1.77-.27.71-1.3,1.65-2.33,2.83-3.1,1.18-.77,2.39-1.45,3.63-2.04,1.24-.59,2.42-1.24,3.54-1.95,1.12-.71,2.04-1.71,2.75-3.01h2.48c.24-.35.68-.83,1.33-1.42.65-.59,1.27-1.18,1.86-1.77.59-.59,1.09-1.18,1.5-1.77.41-.59.56-1.06.44-1.42,1.42-.59,2.63-1.39,3.63-2.39,1-1,1.98-2.06,2.92-3.19.94-1.12,1.89-2.21,2.83-3.28.94-1.06,2.06-1.95,3.37-2.66-.12-.24-.18-.53-.18-.89,0-1.06.32-1.89.97-2.48.65-.59.8-1.65.44-3.19l.53.18c.59,0,1-.18,1.24-.53.24-.35.44-.77.62-1.24.18-.47.41-.91.71-1.33.29-.41.74-.68,1.33-.8v-.35c0-2.13.44-4.13,1.33-6.02.89-1.89,1.33-3.9,1.33-6.02,0-.59-.06-1.15-.18-1.68-.12-.53-.3-1.09-.53-1.68,1.06-1.18,1.74-2.54,2.04-4.07.29-1.53.47-3.13.53-4.78.06-1.65.15-3.3.27-4.96.12-1.65.59-3.25,1.42-4.78,0-1.18-.42-2.01-1.24-2.48l2.12-2.83c.71-.94,1.53-1.71,2.48-2.3h.35c1.3,0,2.45.33,3.45.97,1,.65,1.95,1.36,2.83,2.13.89.77,1.8,1.54,2.75,2.3.94.77,2.01,1.33,3.19,1.68v3.9c1.18.47,2.06,1.3,2.66,2.48-.12,3.19-.21,6.38-.27,9.56-.06,3.19-.09,6.32-.09,9.39,0,4.72.12,9.42.35,14.08.24,4.67.83,9.3,1.77,13.9,1.3,1.3,2.63,2.6,3.99,3.9,1.36,1.3,2.39,2.78,3.1,4.43h2.12c4.13,0,7.32-1.33,9.56-3.99,2.24-2.66,3.84-5.76,4.78-9.3,1.77-.83,3.1-1.98,3.99-3.45.89-1.47,1.59-3.1,2.13-4.87.53-1.77,1-3.57,1.42-5.4.41-1.83,1.09-3.45,2.04-4.87.12-1.42.18-2.83.18-4.25v-4.43c0-6.85-.33-13.67-.97-20.46-.65-6.79-1.04-13.55-1.15-20.28-.47-.94-.83-2.06-1.06-3.37l-.53-3.9c-.12-1.3-.38-2.51-.8-3.63-.42-1.12-1.04-1.92-1.86-2.39.35-1.18.53-2.6.53-4.25,0-1.53-.15-3.07-.44-4.61-.3-1.53-.62-3.07-.97-4.6.94-.82,1.71-1.65,2.3-2.48.59-.82,1.59-1.24,3.01-1.24.82,0,1.56.24,2.21.71.65.47,1.27,1,1.86,1.59.59.59,1.21,1.12,1.86,1.59.65.47,1.44.71,2.39.71.24,0,.5-.03.8-.09.29-.06.62-.09.97-.09,1.18,1.18,2.15,2.66,2.92,4.43.77,1.77,1.48,3.63,2.13,5.58.65,1.95,1.36,3.87,2.12,5.76.77,1.89,1.74,3.6,2.92,5.14,0,.35-.03.68-.09.97-.06.3-.09.62-.09.97,0,1.06.18,2.12.53,3.19.35,1.06.65,2.12.89,3.19Z"/>
      <path class="cls-1" d="M1352,431.14c-.35,1.06-1.04,1.8-2.04,2.21-1,.42-2.04.74-3.1.97-1.06.24-2.04.62-2.92,1.15-.89.53-1.45,1.39-1.68,2.57l-.35.18c-.47,0-.8-.15-.97-.44-.18-.29-.33-.59-.44-.88-.12-.29-.27-.59-.44-.89-.18-.29-.44-.44-.8-.44-1.3,0-2.57.12-3.81.35-1.24.24-2.45.35-3.63.35-1.77,0-3.37-.24-4.78-.71-.83.24-1.27.77-1.33,1.59-.06.83-.44,1.36-1.15,1.59-.59.24-1.3.33-2.13.27-.83-.06-1.66.03-2.48.27l-5.67,1.42c-1.89.47-3.78.71-5.67.71-1.06,0-1.83-.06-2.3-.18-1.77,1.42-3.78,2.45-6.02,3.1-2.25.65-4.58,1.24-7,1.77-2.42.53-4.78,1.21-7.08,2.04-2.3.83-4.34,2.12-6.11,3.9-.95-.24-1.77-.35-2.48-.35-1.54,0-2.89.33-4.07.97-1.18.65-2.42,1.27-3.72,1.86-.59.24-1.18.35-1.77.35s-1.24.12-1.95.35c-.71.24-1.15.62-1.33,1.15s-.56,1.04-1.15,1.51c0,4.25.41,8.47,1.24,12.66.82,4.19,1.24,8.41,1.24,12.66v.71c.24,2.01.89,3.87,1.95,5.58,1.06,1.71,1.59,3.45,1.59,5.22,0,.59-.12,1.24-.35,1.95,3.07.71,5.11,2.28,6.11,4.69,1,2.42,1.83,5.02,2.48,7.79.65,2.78,1.53,5.34,2.66,7.7,1.12,2.36,3.33,3.84,6.64,4.43.24,1.18.41,2.39.53,3.63.12,1.24.18,2.45.18,3.63,0,1.65-.18,3.28-.53,4.87-.35,1.59-1.06,3.04-2.13,4.34-1.77.12-3.07.18-3.9.18s-2.07.35-3.72,1.06c-2.36-1.42-4.46-3.04-6.29-4.87s-3.54-3.78-5.14-5.84-3.16-4.19-4.69-6.38c-1.54-2.18-3.19-4.28-4.96-6.29-6.14,1.54-12.43,2.57-18.86,3.1-6.44.53-12.84.8-19.22.8-.24.24-.59.35-1.06.35s-.92.03-1.33.09c-.42.06-.77.18-1.06.35-.3.18-.38.5-.27.97-.83-.47-1.74-.8-2.75-.97-1-.18-1.92-.27-2.75-.27-.59,0-1.18.03-1.77.09-.59.06-1.18.27-1.77.62-4.49-.83-8.83-1.98-13.02-3.45-4.19-1.48-8.47-2.68-12.84-3.63,0-.94-.24-1.62-.71-2.04-.47-.41-.89-1.03-1.24-1.86-4.96-3.07-9.12-6.79-12.49-11.16-3.37-4.37-4.75-9.68-4.16-15.94l-1.24-2.48c0-1.89.42-3.25,1.24-4.07-.47-.82-1.3-1.65-2.48-2.48,1.06-1.65,2.01-3.37,2.83-5.14.83-1.77,1.42-3.66,1.77-5.67.12-.59.18-1.12.18-1.59s.12-1,.35-1.59c.24-.71.56-1.51.97-2.39s.8-1.68,1.15-2.39c1.89-4.01,3.99-7.88,6.29-11.6,2.3-3.72,5.22-6.94,8.77-9.65.24-2.01.83-3.69,1.77-5.05.94-1.36,1.98-2.6,3.1-3.72,1.12-1.12,2.24-2.27,3.37-3.45,1.12-1.18,1.98-2.6,2.57-4.25,2.36-2.01,4.75-3.96,7.17-5.84,2.42-1.89,4.46-4.13,6.11-6.73,2.12-.71,4.13-1.62,6.02-2.75,1.89-1.12,3.48-2.57,4.78-4.34,2.83-.23,5.64-.77,8.41-1.59,2.77-.82,5.7-1.24,8.77-1.24,1.3,0,2.86.27,4.69.8,1.83.53,3.22,1.45,4.16,2.75.12.24.18.53.18.89l.18.89c.12.24.27.44.44.62s.5.21.97.09c0,2.6-.3,5.22-.89,7.88-.59,2.66-2.13,4.69-4.61,6.11-1.54-.47-3.19-.71-4.96-.71-2.36,0-4.52.44-6.46,1.33-1.95.89-3.84,1.89-5.67,3.01-1.83,1.12-3.69,2.24-5.58,3.37-1.89,1.12-3.9,1.92-6.02,2.39-.24.95-.44,1.8-.62,2.57-.18.77-.15,1.62.09,2.57-.59,0-1.04-.09-1.33-.27-.3-.18-.74-.27-1.33-.27-.83,0-1.39.47-1.68,1.42-.3.95-.56,1.71-.8,2.3-2.24.95-4.1,2.27-5.58,3.98-1.48,1.71-2.83,3.54-4.07,5.49-1.24,1.95-2.57,3.81-3.98,5.58s-3.19,3.13-5.31,4.07c-.95,3.78-1.86,7.5-2.75,11.16-.89,3.66-1.92,7.32-3.1,10.98.35,1.42.53,2.89.53,4.43,0,1.89-.18,3.6-.53,5.14.59.95,1.18,2.07,1.77,3.37l2.12,4.07c.71,1.42,1.45,2.72,2.21,3.9.77,1.18,1.5,2.07,2.21,2.66,1.3.95,3.3,1.8,6.02,2.57,2.71.77,5.14,2.04,7.26,3.81.24,0,.53-.03.89-.09.35-.06.65-.09.89-.09,1.42,0,2.95.35,4.61,1.06,1.65.71,2.71,1.06,3.19,1.06,6.61,0,13.81-.44,21.61-1.33,7.79-.88,14.99-1.98,21.61-3.28.24-1.18.35-2.18.35-3.01,0-1.53-.24-3.04-.71-4.52-.47-1.48-1.24-2.75-2.3-3.81,0-1.77.03-3.54.09-5.31.06-1.77.09-3.54.09-5.31,0-2.95-.12-6.08-.35-9.39-.24-3.3-.83-6.38-1.77-9.21h-.35c-1.54,0-2.92.38-4.16,1.15-1.24.77-2.51,1.15-3.81,1.15-.71,0-1.3-.18-1.77-.53-1.42,1.66-3.13,2.89-5.14,3.72-2.01.83-4.13,1.57-6.38,2.21-2.24.65-4.46,1.33-6.64,2.04-2.19.71-4.16,1.71-5.93,3.01-.95-.35-1.83-.53-2.66-.53s-1.62.06-2.39.18c-.77.12-1.62.24-2.57.35-2.48-2.13-3.72-4.78-3.72-7.97,0-1.65.27-3.28.8-4.87.53-1.59,1.27-3.1,2.21-4.52.59-.35,1.3-.56,2.13-.62.82-.06,1.65-.18,2.48-.35.82-.18,1.51-.44,2.04-.8s.85-1,.97-1.95c.35.35.65.53.89.53s.47-.06.71-.18c.24-.12.47-.18.71-.18s.44.12.62.35c.18.24.27.47.27.71,5.08-2.71,10.27-5.02,15.59-6.91,5.31-1.89,10.71-3.6,16.21-5.14,5.49-1.53,11.01-2.98,16.56-4.34,5.55-1.36,11.04-2.86,16.47-4.52.82-.71,1.71-1.24,2.66-1.59.94-.35,1.77-.89,2.48-1.59.83.47,1.83.71,3.01.71,1.65,0,3.45-.32,5.4-.97,1.95-.65,3.57-1.44,4.87-2.39.47.12.89.18,1.24.18h1.24c2.36,0,4.58-.35,6.64-1.06,2.06-.71,4.1-1.65,6.11-2.83h.89c3.66,0,7.29-.41,10.89-1.24,3.6-.82,7.29-1.24,11.07-1.24,4.84,0,9.09,1.24,12.75,3.72v2.13c0,.95.03,1.8.09,2.57.06.77.27,1.57.62,2.39Z"/>
    </g>
  </g>
  <g>
    <path class="cls-1" d="M20.61,282.02c0,.77-.1,1.48-.3,2.13-.2.65-.46,1.27-.78,1.86-.32.59-.66,1.18-1.02,1.76-.36.58-.71,1.2-1.03,1.84-.08,0-.14.02-.17.06-.03.04-.06.09-.08.15-.02.06-.05.12-.08.16-.03.05-.09.07-.17.07-.12.3-.28.58-.47.84-.19.26-.39.52-.6.77-.21.25-.41.5-.61.76-.2.26-.37.53-.52.83h-.2c-.73,1.05-1.55,2-2.46,2.84-.91.84-1.91,1.59-2.99,2.25-.03.08-.07.15-.12.2-.05.05-.07.13-.04.22-.15.08-.27.19-.38.31-.1.13-.2.26-.29.4-.09.13-.19.27-.29.4-.1.13-.23.23-.4.29-.2-.04-.4-.07-.58-.1-.18-.03-.37-.05-.56-.06-.08,0-.16,0-.24.01-.08,0-.16,0-.22-.01-.15-.03-.27-.08-.38-.17-.1-.09-.25-.13-.44-.13-.09,0-.17,0-.22.02-.11-.19-.23-.38-.37-.58-.14-.2-.21-.41-.21-.64,0-.18.02-.34.07-.49.05-.15.07-.3.07-.47,0-.32-.06-.64-.17-.95-.12-.31-.17-.63-.17-.95,0-.11.01-.21.04-.31.03-.1.04-.21.04-.31,0-.12-.05-.23-.16-.32.01-.07.04-.14.08-.2.04-.07.06-.14.06-.22.03-.11.03-.23.02-.35-.01-.13-.02-.25-.02-.35,0-.28.01-.57.04-.85.03-.28.09-.56.18-.83-.01-.08-.03-.16-.06-.22l-.08-.2c.09-.28.16-.6.18-.95.03-.35.04-.7.04-1.05v-1.07c0-.35.02-.68.06-.99.03-.13.06-.27.09-.4s.05-.25.05-.38c0-.11-.02-.21-.06-.29s-.09-.17-.16-.25c.09-.03.15-.08.16-.17.01-.09.02-.17.02-.23,0-.19-.03-.4-.1-.63.05-.23.09-.46.1-.7.01-.24.02-.47.02-.7,0-.81-.05-1.61-.15-2.39-.1-.78-.17-1.57-.19-2.37h-.06c-.09,0-.17.02-.22.06-.05.04-.11.08-.16.13-.05.05-.12.09-.18.12-.07.03-.15.04-.24.03-.16.19-.35.35-.56.49-.21.14-.43.26-.66.36-.23.11-.47.21-.71.29s-.47.17-.69.25c-.19-.07-.35-.18-.49-.33-.14-.16-.26-.31-.39-.48-.01-.05-.02-.11-.02-.16v-.16c0-.38.09-.67.26-.86.18-.2.36-.43.57-.7h.1c.07,0,.12.01.17.04s.1.04.17.04h.06c.39-.32.81-.58,1.25-.78.44-.2.89-.35,1.37-.46.2-.2.41-.36.62-.47.21-.11.46-.16.74-.16.07,0,.15,0,.23.01s.17.02.23.03c.55-.26,1.08-.48,1.57-.66.49-.18,1.06-.27,1.71-.27.08,0,.14-.02.17-.06s.06-.08.09-.13c.03-.05.05-.09.08-.13.03-.04.07-.06.14-.06,0,.03,0,.07.02.12.01.05.05.08.1.08s.1-.02.15-.05.1-.05.17-.05.11.05.14.14c.15-.09.29-.18.43-.26.13-.08.28-.14.45-.18.2.04.41.07.62.1.21.03.42.04.64.04.16,0,.32-.01.49-.03.16-.02.3-.08.43-.19.05-.01.08.01.08.08.12.11.25.18.39.21.13.03.28.05.43.06.15,0,.3.02.45.03.15.01.28.06.41.14.11.03.2.07.26.13.07.06.16.11.26.15.08.03.19.05.33.06.14.01.25.04.31.08.07.03.1.07.11.13,0,.06.04.11.11.15.12.09.28.15.49.17.2.02.38.08.53.19.05.3.2.49.45.59.24.09.48.19.71.28.08.08.11.18.08.28.16.12.31.26.44.41.13.15.25.31.36.48s.23.33.33.5c.11.16.24.31.39.45-.01.12,0,.22.05.28.05.07.06.17.03.3.16.15.31.34.45.59-.08.12-.12.26-.12.41,0,.14.02.27.06.41.04.14.06.27.06.41v.47ZM18.73,281.57c0-.39-.07-.77-.22-1.15-.15-.37-.28-.74-.38-1.1-.18,0-.29-.06-.33-.19-.05-.13-.13-.24-.25-.33-.26-.05-.42-.25-.49-.59-.27-.11-.55-.23-.83-.36s-.52-.32-.71-.57c-.49-.15-.98-.3-1.47-.46s-1-.23-1.51-.23c-.09,0-.18,0-.25.01s-.15.01-.21.01c-.11,0-.22.02-.34.06s-.24.06-.34.06c-.12,0-.24-.04-.36-.12-.27.15-.56.26-.88.34-.32.08-.64.15-.96.21-.32.06-.64.14-.95.22-.31.09-.59.22-.83.4-.08-.03-.16-.05-.23-.06s-.15-.02-.21-.02c-.12,0-.22.03-.28.08-.04.03-.06.06-.07.1s-.01.08-.02.13c0,.05-.02.08-.05.11s-.08.03-.16.02c0,.07,0,.13-.01.18,0,.05-.01.11-.01.18,0,.35.04.7.11,1.04.07.34.11.69.11,1.04,0,.12,0,.25-.02.38-.01.13-.04.25-.08.38.07.16.1.34.11.53,0,.19,0,.38,0,.57s0,.38.02.56c.01.18.06.35.14.52-.04.2-.07.41-.08.61-.01.2-.02.41-.02.61,0,.47.02.94.07,1.4s.07.93.07,1.4c0,.12,0,.25,0,.39,0,.14-.02.27-.03.41-.03.18-.07.34-.14.51-.07.16-.1.34-.1.53,0,.12,0,.25.02.38.01.13.02.26.02.4,0,.05,0,.1,0,.15,0,.05-.01.1-.01.15-.07.47-.12.95-.16,1.44s-.06.97-.06,1.44c0,.45.01.89.04,1.33.03.44.07.88.12,1.33-.05.09-.08.2-.08.32,0,.19.05.38.14.58.09.2.24.33.43.4.43-.16.83-.38,1.21-.64.37-.26.75-.53,1.12-.8.09-.07.24-.16.43-.27.19-.11.32-.2.39-.25.07-.05.12-.11.17-.17.05-.06.1-.12.17-.19l.89-.95c.51-.53,1.02-1.06,1.53-1.6.51-.54.98-1.11,1.41-1.72.12-.19.24-.37.36-.56s.24-.38.34-.58c.05-.07.09-.15.12-.23.03-.09.07-.17.14-.23.04-.05.09-.11.15-.16.06-.05.11-.11.15-.16.11-.12.21-.25.31-.38.1-.13.21-.27.31-.42.3-.43.57-.87.83-1.31.26-.44.54-.87.85-1.31.03-.27.08-.52.16-.76s.16-.47.24-.69c.08-.22.15-.46.2-.7.05-.24.07-.51.04-.81.07-.09.12-.16.17-.2.05-.04.07-.12.07-.24v-.34Z"/>
    <g>
      <path class="cls-1" d="M25.65,292.8c0,.31-.04.6-.12.86-.08.26-.19.51-.31.75s-.27.48-.41.71c-.15.23-.29.48-.42.74-.03,0-.06,0-.07.02-.01.02-.02.04-.03.06,0,.02-.02.05-.03.07-.01.02-.04.03-.07.03-.05.12-.11.23-.19.34-.08.11-.16.21-.24.31-.08.1-.17.2-.25.31s-.15.22-.21.33h-.08c-.29.42-.62.81-.99,1.14-.37.34-.77.64-1.21.91-.01.03-.03.06-.05.08-.02.02-.03.05-.02.09-.06.03-.11.07-.15.13-.04.05-.08.1-.12.16-.04.05-.08.11-.12.16-.04.05-.09.09-.16.12-.08-.02-.16-.03-.23-.04-.07-.01-.15-.02-.22-.02-.03,0-.07,0-.1,0-.03,0-.06,0-.09,0-.06-.01-.11-.03-.15-.07-.04-.04-.1-.05-.18-.05-.04,0-.07,0-.09,0-.04-.08-.09-.15-.15-.23s-.09-.16-.09-.26c0-.07,0-.14.03-.2.02-.06.03-.12.03-.19,0-.13-.02-.26-.07-.38s-.07-.25-.07-.38c0-.04,0-.09.02-.13.01-.04.02-.08.02-.13,0-.05-.02-.09-.07-.13,0-.03.02-.05.03-.08.02-.03.02-.06.02-.09.01-.04.01-.09,0-.14s0-.1,0-.14c0-.11,0-.23.02-.34.01-.11.04-.23.07-.33,0-.03-.01-.06-.02-.09l-.03-.08c.04-.11.06-.24.07-.38.01-.14.02-.28.02-.42v-.43c0-.14,0-.28.02-.4.01-.05.02-.11.04-.16.01-.05.02-.1.02-.15,0-.04,0-.08-.02-.12-.02-.04-.04-.07-.07-.1.04-.01.06-.03.07-.07,0-.04,0-.07,0-.09,0-.08-.01-.16-.04-.25.02-.09.04-.19.04-.28,0-.1,0-.19,0-.28,0-.33-.02-.65-.06-.96-.04-.32-.07-.63-.08-.96h-.02s-.07,0-.09.02c-.02.02-.04.03-.07.05s-.05.04-.07.05c-.03.01-.06.02-.1.01-.07.08-.14.14-.22.2-.08.05-.17.1-.27.15-.09.04-.19.08-.29.12-.1.04-.19.07-.28.1-.08-.03-.14-.07-.2-.13-.05-.06-.11-.13-.16-.19,0-.02,0-.04,0-.06v-.07c0-.15.04-.27.11-.35.07-.08.15-.17.23-.28h.04s.05,0,.07.02.04.02.07.02h.02c.16-.13.33-.24.5-.31.18-.08.36-.14.55-.18.08-.08.16-.14.25-.19.08-.04.18-.07.3-.07.03,0,.06,0,.09,0,.04,0,.07,0,.09.01.22-.1.43-.19.63-.27.2-.07.43-.11.69-.11.03,0,.06,0,.07-.02.01-.02.03-.03.04-.05s.02-.04.03-.05c.01-.02.03-.02.06-.02,0,.01,0,.03,0,.05,0,.02.02.03.04.03s.04,0,.06-.02.04-.02.07-.02.05.02.06.06c.06-.04.12-.07.17-.11.05-.03.11-.06.18-.07.08.02.16.03.25.04s.17.02.26.02c.07,0,.13,0,.2-.01.07,0,.12-.03.17-.08.02,0,.03,0,.03.03.05.04.1.07.16.09.05.01.11.02.17.02.06,0,.12,0,.18.01.06,0,.11.02.16.06.04.01.08.03.11.05s.06.04.11.06c.03.01.08.02.14.02.06,0,.1.02.13.03.03.01.04.03.04.05,0,.02.02.04.04.06.05.04.11.06.2.07.08,0,.15.03.21.08.02.12.08.2.18.24.1.04.19.08.29.11.03.03.04.07.03.11.07.05.12.1.18.16s.1.12.15.19c.05.07.09.13.13.2.04.07.1.13.16.18,0,.05,0,.09.02.11.02.03.02.07.01.12.07.06.13.14.18.24-.03.05-.05.1-.05.16,0,.05,0,.11.02.16.02.05.02.11.02.16v.19ZM24.89,292.62c0-.16-.03-.31-.09-.46s-.11-.3-.16-.45c-.07,0-.12-.03-.13-.08s-.05-.1-.1-.13c-.1-.02-.17-.1-.2-.24-.11-.04-.22-.09-.33-.15-.11-.05-.21-.13-.29-.23-.2-.06-.39-.12-.59-.18-.2-.06-.4-.09-.61-.09-.04,0-.07,0-.1,0-.03,0-.06,0-.09,0-.04,0-.09,0-.14.02-.05.02-.1.02-.14.02-.05,0-.1-.02-.15-.05-.11.06-.23.11-.36.14s-.26.06-.39.09-.26.05-.38.09c-.13.04-.24.09-.33.16-.03-.01-.06-.02-.09-.02s-.06,0-.09,0c-.05,0-.09.01-.11.03-.02.01-.03.02-.03.04,0,.02,0,.03,0,.05s0,.03-.02.04c-.01.01-.03.01-.07,0,0,.03,0,.05,0,.07,0,.02,0,.05,0,.07,0,.14.01.28.04.42.03.14.04.28.04.42,0,.05,0,.1,0,.15s-.02.1-.03.15c.03.07.04.14.04.21,0,.08,0,.15,0,.23s0,.15,0,.22c0,.07.02.14.06.21-.02.08-.03.16-.03.25,0,.08,0,.16,0,.25,0,.19,0,.38.03.56.02.19.03.37.03.56,0,.05,0,.1,0,.16,0,.05,0,.11-.01.16-.01.07-.03.14-.06.2s-.04.14-.04.21c0,.05,0,.1,0,.15s0,.1,0,.16c0,.02,0,.04,0,.06,0,.02,0,.04,0,.06-.03.19-.05.38-.07.58-.02.2-.02.39-.02.58,0,.18,0,.36.02.54.01.18.03.36.05.54-.02.04-.03.08-.03.13,0,.08.02.15.06.23s.1.13.17.16c.17-.07.34-.15.49-.26.15-.11.3-.21.45-.32.04-.03.1-.06.17-.11s.13-.08.16-.1c.03-.02.05-.04.07-.07s.04-.05.07-.08l.36-.38c.21-.21.41-.43.62-.65.2-.22.39-.45.57-.69.05-.08.1-.15.15-.23.05-.07.1-.15.14-.23.02-.03.04-.06.05-.09.01-.04.03-.07.06-.09.02-.02.04-.04.06-.07s.04-.04.06-.07c.04-.05.09-.1.13-.15.04-.05.08-.11.13-.17.12-.17.23-.35.33-.53.1-.18.22-.35.34-.53.01-.11.03-.21.07-.31.03-.1.07-.19.1-.28s.06-.18.08-.28c.02-.1.03-.21.02-.33.03-.04.05-.07.07-.08.02-.02.03-.05.03-.1v-.14Z"/>
      <path class="cls-1" d="M31.8,297.9c-.02.08-.05.14-.1.18s-.11.08-.18.11-.14.04-.22.05c-.07,0-.14.01-.2.01-.03,0-.05,0-.08,0-.02,0-.05,0-.08,0s-.04.01-.04.04-.01.05-.04.06c-.03-.01-.05-.02-.08-.02s-.05,0-.08,0c-.04,0-.08,0-.11,0-.04,0-.07,0-.1,0-.04,0-.08,0-.09-.02s-.04-.02-.05-.04-.03-.03-.04-.04c-.01-.02-.03-.03-.06-.04-.04-.02-.07-.02-.09,0-.02.01-.06,0-.11-.05-.07-.05-.12-.12-.17-.2-.05-.08-.09-.16-.14-.25-.04-.09-.09-.17-.14-.26-.05-.09-.11-.16-.17-.23h-.07c-.1,0-.17.04-.2.12-.03-.02-.05-.04-.08-.06s-.06-.04-.09-.06c-.13.04-.26.07-.39.1-.14.03-.27.04-.41.04h-.11s-.07,0-.11-.02c-.05.02-.1.05-.15.08-.04.03-.09.04-.15.04-.03,0-.07-.01-.11-.03-.03,0-.05.01-.04.04,0,.03-.02.04-.05.04h-.07c-.08,0-.15,0-.22,0-.07,0-.15,0-.22,0-.1,0-.21-.01-.32-.04-.03.02-.06.02-.09.02-.02.01-.04.03-.05.05-.01.02-.02.05-.03.06-.01.02-.03.04-.04.05s-.04.02-.08.01c-.01.07-.04.12-.08.16-.04.04-.07.1-.07.17-.06.03-.11.07-.15.12-.04.05-.08.1-.11.16-.04.05-.08.11-.12.16-.04.05-.09.09-.15.11-.03.03-.04.08-.02.16-.06.05-.13.09-.22.13-.09.04-.17.06-.25.06-.16,0-.27-.08-.33-.25,0-.05,0-.11.01-.18s.02-.12.04-.18c.02-.06.04-.11.07-.16s.08-.08.14-.1c0-.05-.02-.08-.05-.1-.03-.02-.05-.05-.04-.1.15-.07.28-.16.38-.28s.21-.24.3-.36c.09-.13.18-.26.27-.39s.2-.25.31-.35v-.17c.16-.17.27-.37.32-.59.06-.01.1-.04.12-.08s.03-.1.03-.16c.03,0,.04-.01.05-.04,0-.02.03-.03.07-.02.05-.13.1-.25.16-.36.06-.11.12-.22.18-.33.06-.11.11-.23.16-.35.05-.12.08-.25.1-.4.08,0,.12-.04.13-.11,0-.07.02-.13.03-.18.08-.08.14-.17.18-.27.04-.1.08-.21.11-.32.03-.11.07-.22.11-.33.04-.11.1-.21.18-.3v-.02s-.01-.04-.03-.05c-.02,0-.03-.03-.03-.05,0,0,0-.01,0-.02.07-.03.11-.07.15-.13s.08-.11.15-.13c.11.09.22.15.3.17.09.02.2.03.34.04.07.08.11.17.12.27,0,.11.03.21.05.31.04.17.09.34.14.51.05.17.09.34.12.51.02.1.05.2.09.29s.07.19.09.29c.01.08.01.16,0,.26s0,.18.03.25l.06.13c.03.06.05.12.07.19.02.06.04.13.05.2.04.16.08.34.12.53.04.19.09.36.17.51.03.05.07.09.13.11.06.02.12.04.19.05.07,0,.14.01.21,0,.07,0,.13,0,.18,0h.08s.07,0,.1.02c.02.04.03.08.03.11,0,.06-.02.12-.07.16s-.07.08-.07.13c0,.03.01.06.03.09-.02,0-.05,0-.1,0-.12,0-.25.02-.37.06.04.09.1.17.18.23.07.06.15.12.23.18.05-.04.11-.07.17-.07.07,0,.13.02.18.04.06.03.12.04.18.04.05,0,.08,0,.11-.02.04.05.08.1.11.15s.06.1.11.14ZM29.24,296.6c-.01-.09-.03-.16-.05-.2-.02-.04-.04-.09-.06-.15-.02-.08-.04-.16-.04-.25,0-.09-.02-.17-.04-.25-.04-.19-.08-.37-.13-.56-.05-.19-.1-.36-.18-.54.02-.03.03-.06.03-.09v-.02c-.05-.05-.08-.12-.11-.2-.02-.08-.04-.16-.06-.24-.02-.08-.04-.15-.07-.22-.03-.07-.08-.12-.14-.17-.02.03-.02.07-.02.11,0,.04,0,.07.01.11s.01.07.01.11c-.05.03-.09.07-.12.13-.02.06-.06.1-.12.13-.04.17-.11.34-.19.49-.08.15-.17.31-.26.46s-.18.31-.26.46-.15.32-.2.49c-.07.05-.12.11-.14.19-.02.08-.04.15-.04.23.05.03.1.04.17.04.06,0,.12,0,.18,0s.12,0,.17.02c.05.01.1.04.15.08.07-.02.15-.04.23-.04.08,0,.15-.03.21-.07.11.04.23.06.35.06.07,0,.13,0,.19-.02.06-.01.12-.02.18-.04.05.01.09.03.11.05s.07.03.12.03c.03-.02.04-.04.05-.07,0-.02.02-.05.04-.07Z"/>
      <path class="cls-1" d="M38.6,293.28h-.03s-.02,0-.03,0-.02.01-.02.02c.01.04.02.07.02.09,0,.07-.02.12-.06.17-.04.05-.06.09-.06.12,0,.02,0,.03.03.04.02.01.03.02.04.02-.03.03-.05.07-.07.11s-.05.07-.07.1c.01.19.03.38.07.56.04.18.05.37.05.55,0,.09,0,.18-.03.27s-.04.18-.06.27c-.02.09-.04.18-.06.27s-.03.18-.03.27c-.07.14-.15.28-.23.4s-.14.27-.18.42c-.13.08-.23.17-.32.28-.09.11-.18.22-.27.33-.19.07-.37.15-.52.26-.03,0-.05,0-.07,0h-.06c-.21,0-.38-.04-.53-.11s-.27-.18-.38-.3c-.11-.12-.2-.26-.27-.42-.08-.16-.15-.32-.21-.49-.12.09-.24.2-.34.31-.1.12-.2.23-.31.35-.03.04-.07.09-.12.15-.05.06-.09.1-.13.13-.02.01-.04.02-.07.03-.02,0-.05.02-.08.03-.15.09-.27.2-.36.35-.11.04-.21.09-.31.15-.1.05-.2.11-.29.17-.1,0-.21.01-.31.02-.1,0-.2.01-.3.01-.15,0-.26,0-.32-.03-.06-.02-.11-.04-.15-.07-.04-.03-.07-.07-.11-.11-.04-.04-.1-.09-.2-.14-.03-.07-.05-.14-.08-.21s-.06-.14-.1-.2v-.11s0-.1,0-.14c0-.04-.01-.08-.03-.12-.02-.04-.04-.06-.08-.07,0-.2.02-.4.07-.6.05-.2.09-.4.12-.6.03-.11.04-.23.05-.35,0-.03,0-.06,0-.09s0-.06.02-.1c.01-.03.03-.06.06-.08.03-.02.05-.05.06-.1.03-.08.04-.16.05-.25,0-.09.01-.18.02-.26.03-.16.06-.33.09-.49.04-.16.08-.32.13-.48,0-.03,0-.05,0-.07v-.08c0-.21.01-.41.04-.6.03-.2.04-.4.04-.6,0-.1,0-.2-.02-.31.03-.05.06-.1.09-.15.04-.05.08-.08.14-.11.11.06.23.12.34.19.11.07.22.14.32.22v.2c0,.16,0,.33-.01.5,0,.18-.02.36-.05.54-.02.18-.06.35-.09.52-.04.17-.09.32-.16.47v.26c-.1.17-.16.36-.2.55-.03.19-.07.38-.11.57-.01.06-.03.13-.07.21s-.05.15-.05.21c0,.03,0,.05.01.08,0,.03.02.05.02.08-.04.1-.07.2-.07.31,0,.11-.02.22-.04.33.04.07.08.15.12.22.04.08.07.16.12.24h.08s.1,0,.15,0c.05,0,.11.01.16.01.03,0,.05,0,.08,0,.03,0,.05,0,.08-.01.03-.06.08-.11.13-.14.05-.04.11-.07.17-.09.06-.03.11-.06.16-.09s.09-.08.13-.14h.11s.03-.04.06-.07c.03-.03.06-.05.09-.08.03-.03.05-.05.07-.08.02-.03.03-.05.02-.07.07-.03.12-.06.17-.11.05-.05.09-.1.14-.15.04-.05.09-.1.13-.15.04-.05.1-.09.16-.12,0-.01,0-.02,0-.04,0-.05.02-.09.04-.11.03-.03.04-.08.02-.15h.02s.05,0,.06-.02c.01-.02.02-.04.03-.06,0-.02.02-.04.03-.06.01-.02.03-.03.06-.04v-.02c0-.1.02-.19.06-.28.04-.09.06-.18.06-.28,0-.03,0-.05,0-.08s-.01-.05-.02-.08c.05-.05.08-.12.09-.19s.02-.14.02-.22c0-.08,0-.15.01-.23s.03-.15.07-.22c0-.05-.02-.09-.06-.11l.1-.13s.07-.08.11-.11h.02c.06,0,.11.02.16.04.05.03.09.06.13.1.04.04.08.07.13.11.04.04.09.06.15.08v.18c.05.02.1.06.12.11,0,.15,0,.29-.01.44s0,.29,0,.43c0,.22,0,.43.02.65s.04.43.08.64c.06.06.12.12.18.18.06.06.11.13.14.2h.1c.19,0,.34-.06.44-.18s.18-.27.22-.43c.08-.04.14-.09.18-.16.04-.07.07-.14.1-.23.02-.08.05-.16.07-.25s.05-.16.09-.22c0-.07,0-.13,0-.2v-.2c0-.32-.01-.63-.04-.94-.03-.31-.05-.62-.05-.94-.02-.04-.04-.1-.05-.16l-.02-.18c0-.06-.02-.12-.04-.17-.02-.05-.05-.09-.09-.11.02-.05.02-.12.02-.2,0-.07,0-.14-.02-.21s-.03-.14-.04-.21c.04-.04.08-.08.11-.11.03-.04.07-.06.14-.06.04,0,.07.01.1.03.03.02.06.05.09.07s.06.05.09.07c.03.02.07.03.11.03.01,0,.02,0,.04,0,.01,0,.03,0,.04,0,.05.05.1.12.13.2.04.08.07.17.1.26s.06.18.1.27c.04.09.08.17.13.24,0,.02,0,.03,0,.04,0,.01,0,.03,0,.04,0,.05,0,.1.02.15.02.05.03.1.04.15Z"/>
      <path class="cls-1" d="M47.64,293.98s-.05.08-.09.1-.09.03-.14.04-.09.03-.13.05c-.04.02-.07.06-.08.12h-.02s-.04,0-.04-.01c0-.01-.02-.03-.02-.04,0-.01-.01-.03-.02-.04s-.02-.02-.04-.02c-.06,0-.12,0-.18.02-.06.01-.11.02-.17.02-.08,0-.16-.01-.22-.03-.04.01-.06.04-.06.07,0,.04-.02.06-.05.07-.03.01-.06.02-.1.01-.04,0-.08,0-.11.01l-.26.07c-.09.02-.17.03-.26.03-.05,0-.08,0-.11,0-.08.07-.17.11-.28.14-.1.03-.21.06-.32.08-.11.02-.22.06-.33.09-.11.04-.2.1-.28.18-.04-.01-.08-.02-.11-.02-.07,0-.13.02-.19.04-.05.03-.11.06-.17.09-.03.01-.05.02-.08.02s-.06,0-.09.02c-.03.01-.05.03-.06.05,0,.02-.03.05-.05.07,0,.2.02.39.06.58s.06.39.06.58v.03c.01.09.04.18.09.26.05.08.07.16.07.24,0,.03,0,.06-.02.09.14.03.24.1.28.22.05.11.08.23.11.36.03.13.07.25.12.35.05.11.15.18.31.2.01.05.02.11.02.17s0,.11,0,.17c0,.08,0,.15-.02.22-.02.07-.05.14-.1.2-.08,0-.14,0-.18,0s-.1.02-.17.05c-.11-.07-.21-.14-.29-.22s-.16-.17-.24-.27c-.07-.1-.15-.19-.22-.29-.07-.1-.15-.2-.23-.29-.28.07-.57.12-.87.14s-.59.04-.89.04c-.01.01-.03.02-.05.02s-.04,0-.06,0c-.02,0-.04,0-.05.02-.01,0-.02.02-.01.04-.04-.02-.08-.04-.13-.04-.05,0-.09-.01-.13-.01-.03,0-.05,0-.08,0s-.05.01-.08.03c-.21-.04-.41-.09-.6-.16-.19-.07-.39-.12-.59-.17,0-.04-.01-.07-.03-.09-.02-.02-.04-.05-.06-.09-.23-.14-.42-.31-.58-.51s-.22-.45-.19-.74l-.06-.11c0-.09.02-.15.06-.19-.02-.04-.06-.08-.11-.11.05-.08.09-.16.13-.24.04-.08.07-.17.08-.26,0-.03,0-.05,0-.07s0-.05.02-.07c.01-.03.03-.07.04-.11.02-.04.04-.08.05-.11.09-.19.18-.36.29-.54.11-.17.24-.32.4-.45.01-.09.04-.17.08-.23s.09-.12.14-.17.1-.1.16-.16c.05-.05.09-.12.12-.2.11-.09.22-.18.33-.27.11-.09.21-.19.28-.31.1-.03.19-.08.28-.13.09-.05.16-.12.22-.2.13-.01.26-.04.39-.07s.26-.06.4-.06c.06,0,.13.01.22.04s.15.07.19.13c0,.01,0,.02,0,.04v.04s.02.02.03.03c0,0,.02,0,.04,0,0,.12-.01.24-.04.36-.03.12-.1.22-.21.28-.07-.02-.15-.03-.23-.03-.11,0-.21.02-.3.06-.09.04-.18.09-.26.14-.08.05-.17.1-.26.16-.09.05-.18.09-.28.11-.01.04-.02.08-.03.12,0,.04,0,.07,0,.12-.03,0-.05,0-.06-.01-.01,0-.03-.01-.06-.01-.04,0-.06.02-.08.07-.01.04-.03.08-.04.11-.1.04-.19.1-.26.18-.07.08-.13.16-.19.25-.06.09-.12.18-.18.26s-.15.14-.25.19c-.04.17-.09.35-.13.51-.04.17-.09.34-.14.51.02.06.02.13.02.2,0,.09,0,.17-.02.24.03.04.05.1.08.16l.1.19c.03.07.07.13.1.18.04.05.07.1.1.12.06.04.15.08.28.12.13.04.24.09.33.18.01,0,.02,0,.04,0,.02,0,.03,0,.04,0,.07,0,.14.02.21.05.08.03.12.05.15.05.31,0,.64-.02,1-.06.36-.04.69-.09,1-.15.01-.05.02-.1.02-.14,0-.07-.01-.14-.03-.21-.02-.07-.06-.13-.11-.18,0-.08,0-.16,0-.25,0-.08,0-.16,0-.25,0-.14,0-.28-.02-.43s-.04-.29-.08-.42h-.02c-.07,0-.13.02-.19.05-.06.04-.12.05-.18.05-.03,0-.06,0-.08-.02-.07.08-.14.13-.24.17-.09.04-.19.07-.29.1-.1.03-.21.06-.31.09-.1.03-.19.08-.27.14-.04-.02-.08-.02-.12-.02s-.07,0-.11,0c-.04,0-.07.01-.12.02-.11-.1-.17-.22-.17-.37,0-.08.01-.15.04-.22.02-.07.06-.14.1-.21.03-.02.06-.03.1-.03.04,0,.08,0,.11-.02.04,0,.07-.02.09-.04.02-.02.04-.05.04-.09.02.02.03.02.04.02s.02,0,.03,0c.01,0,.02,0,.03,0s.02,0,.03.02c0,.01.01.02.01.03.23-.12.47-.23.72-.32.25-.09.49-.17.75-.24.25-.07.51-.14.76-.2.26-.06.51-.13.76-.21.04-.03.08-.06.12-.07.04-.02.08-.04.11-.07.04.02.08.03.14.03.08,0,.16-.01.25-.04.09-.03.16-.07.22-.11.02,0,.04,0,.06,0h.06c.11,0,.21-.02.31-.05.1-.03.19-.08.28-.13h.04c.17,0,.34-.02.5-.06.17-.04.34-.06.51-.06.22,0,.42.06.59.17v.1s0,.08,0,.12c0,.04.01.07.03.11Z"/>
    </g>
  </g>
</svg>